<svg width="356" height="249" viewBox="0 0 356 249" fill="none" xmlns="http://www.w3.org/2000/svg">
<path d="M172.69 245.459L6.92037 147.459C1.64037 144.459 -2.87963 139.629 2.26037 136.459L168.63 40.5891C171.13 39.0391 174.92 38.0291 177.45 39.4991L351.45 140.499C356.73 143.559 357.67 152.129 352.39 155.189L194.54 245.299C191.228 247.227 187.469 248.255 183.637 248.283C179.804 248.312 176.031 247.338 172.69 245.459Z" fill="#EF7575"/>
<path d="M85.7204 144.979L45.8204 168.549C45.8204 168.549 123.35 214.299 145.65 227.549L184.11 203.039" fill="url(#paint0_linear_20_38)"/>
<path d="M73.7104 146.559L76.5604 148.249L198.06 78.6592L290.35 134.089L294.56 132.829V137.829C294.622 138.343 294.531 138.864 294.298 139.327C294.065 139.79 293.7 140.173 293.25 140.429L176.85 207.209C175.197 208.145 173.33 208.637 171.43 208.637C169.531 208.637 167.663 208.145 166.01 207.209L76.1104 156.679C75.2446 156.198 74.5532 155.455 74.1347 154.557C73.7163 153.659 73.5923 152.652 73.7804 151.679L73.7104 146.559Z" fill="#8C32FF"/>
<path d="M73.7104 146.559L76.5604 148.249L198.06 78.6592L290.35 134.089L294.56 132.829V137.829C294.622 138.343 294.531 138.864 294.298 139.327C294.065 139.79 293.7 140.173 293.25 140.429L176.85 207.209C175.197 208.145 173.33 208.637 171.43 208.637C169.531 208.637 167.663 208.145 166.01 207.209L76.1104 156.679C75.2446 156.198 74.5532 155.455 74.1347 154.557C73.7163 153.659 73.5923 152.652 73.7804 151.679L73.7104 146.559Z" fill="#8C32FF"/>
<path opacity="0.39" d="M73.7104 146.559L76.5604 148.249L198.06 78.6592L290.35 134.089L294.56 132.829V137.829C294.622 138.343 294.531 138.864 294.298 139.327C294.065 139.79 293.7 140.173 293.25 140.429L176.85 207.209C175.197 208.145 173.33 208.637 171.43 208.637C169.531 208.637 167.663 208.145 166.01 207.209L76.1104 156.679C75.2446 156.198 74.5532 155.455 74.1347 154.557C73.7163 153.659 73.5923 152.652 73.7804 151.679L73.7104 146.559Z" fill="#124577"/>
<path d="M293.19 134.259L176.85 201.039C175.197 201.975 173.33 202.467 171.43 202.467C169.531 202.467 167.663 201.975 166.01 201.039L76.1104 150.509C75.3847 150.097 74.7811 149.5 74.3612 148.779C73.9413 148.058 73.7201 147.238 73.7201 146.404C73.7201 145.57 73.9413 144.75 74.3612 144.029C74.7811 143.308 75.3847 142.711 76.1104 142.299L198.11 72.439L293.29 129.639C293.698 129.876 294.035 130.218 294.266 130.63C294.497 131.041 294.613 131.507 294.603 131.978C294.593 132.45 294.456 132.91 294.208 133.312C293.959 133.713 293.608 134.04 293.19 134.259Z" fill="#8C32FF"/>
<path d="M279.39 131.479L179.35 188.869L90.6604 139.019L192.1 79.449L279.39 131.479Z" fill="white"/>
<path opacity="0.39" d="M124.11 169.159C126.557 169.159 128.54 168.08 128.54 166.749C128.54 165.418 126.557 164.339 124.11 164.339C121.664 164.339 119.68 165.418 119.68 166.749C119.68 168.08 121.664 169.159 124.11 169.159Z" fill="#124577"/>
<path opacity="0.32" d="M146.35 142.039C145.748 141.63 145.243 141.092 144.873 140.464C144.503 139.837 144.277 139.135 144.21 138.409L114.54 157.459L133.6 168.039C133.68 167.679 157.14 149.539 157.14 149.539C150.21 145.869 152.7 146.589 146.35 142.039Z" fill="url(#paint1_linear_20_38)"/>
<path d="M152.26 45.2192C152.26 45.2192 154.36 41.4692 154.94 41.1392C155.675 40.6263 156.516 40.2846 157.4 40.1392C157.91 40.2592 157.4 41.5592 157.4 41.5592C157.4 41.5592 162.4 40.2792 162.91 40.6592C163.42 41.0392 162.4 42.7892 161.46 43.8392C160.52 44.8892 153.9 48.1192 153.9 48.1192L152.26 45.2192Z" fill="#FFB7A2"/>
<path d="M162.35 41.1592L165.74 35.1592C165.781 35.0837 165.797 34.9978 165.787 34.9129C165.777 34.828 165.741 34.7482 165.685 34.684C165.628 34.6199 165.554 34.5746 165.471 34.554C165.388 34.5335 165.3 34.5388 165.22 34.5692L160.55 36.4792C160.216 36.6171 159.938 36.8637 159.76 37.1792L156.61 42.7492C158.51 42.0392 160.46 41.7192 162.35 41.1592Z" fill="#42342D"/>
<path d="M146.35 6.03905C146.35 6.03905 140.27 5.43905 137.1 10.1891C133.93 14.9391 126.42 32.519 128.35 33.989C130.28 35.459 140.68 37.1591 145.77 35.6891C150.86 34.2191 150.63 22.3391 150.63 22.3391" fill="#F47C2C"/>
<path d="M148.12 128.519C148.12 128.519 147.79 137.519 149.44 140.259C151.09 142.999 159.31 147.579 157.14 149.509C154.97 151.439 149.85 150.509 148.14 148.349C147.041 146.866 146.039 145.312 145.14 143.699V147.109C145.14 147.109 141.72 145.109 141.72 144.939C141.72 144.769 140.93 124.599 140.93 124.599" fill="#42342D"/>
<path d="M135.66 132.309C135.66 132.309 135.33 141.309 136.99 144.009C138.65 146.709 147.31 152.949 145.12 154.869C142.93 156.789 137.82 155.019 135.7 152.389C134.514 150.84 133.476 149.183 132.6 147.439V150.839C132.6 150.839 129.15 148.839 129.15 148.669C129.15 148.499 128.36 128.389 128.36 128.389" fill="#42342D"/>
<path d="M151.98 56.3992C152.42 57.5292 156.44 123.529 152.2 131.929C148.749 133.726 144.873 134.545 140.99 134.299L139.6 139.219C139.6 139.219 129.18 142.449 121.66 139.309C121.66 139.309 125.26 70.5692 130.58 57.8292" fill="#748DE8"/>
<path d="M153.51 42.5192C153.604 40.7058 153.68 38.8892 153.74 37.0691C153.84 33.8191 154.5 29.3091 152.23 26.5991C150.73 24.7991 148.23 24.5292 146.23 23.7992C145.307 23.4706 144.33 23.3147 143.35 23.3392C142.725 23.413 142.108 23.5504 141.51 23.7492C139.26 23.7492 136.29 25.6192 134.22 26.6192C133.22 27.1192 132.64 30.3091 131.77 31.0591C129.89 35.5691 129.46 35.8992 129.37 40.8292C129.315 40.9059 129.272 40.9901 129.24 41.0792C128.76 42.5992 129.02 47.9492 129.41 53.0092C129.41 53.1092 129.41 53.2091 129.41 53.3091V53.2492C129.59 55.5592 129.8 57.7991 129.97 59.5691C136.97 62.3691 144.83 61.3991 151.97 59.1391C152.52 58.9691 152.78 51.1992 152.87 50.2992C153.18 47.7092 153.35 45.1092 153.51 42.5192Z" fill="#FFC931"/>
<path d="M152.35 12.2291C152.65 12.3891 151.21 26.4891 145.54 25.1691C139.87 23.8491 139.91 19.1691 140.04 17.9491C140.17 16.7291 142.83 13.7791 143.71 12.6291C144.59 11.4791 151.08 11.5391 152.35 12.2291Z" fill="#FFB7A2"/>
<path d="M153.76 10.739C153.03 7.18904 146.76 4.47904 140.96 7.20904C137.35 8.90904 133.8 18.729 137.8 20.719C141.8 22.709 140.8 21.719 140.8 21.719C140.731 21.4767 140.681 21.2292 140.65 20.979C140.609 20.8812 140.592 20.7749 140.6 20.669C140.6 20.579 140.6 20.489 140.6 20.409C140.6 20.329 140.6 20.279 140.6 20.219C140.807 17.5725 141.859 15.0623 143.6 13.059C145.37 11.289 147.78 11.399 150.08 11.729C150.843 11.764 151.596 11.9192 152.31 12.189L151.95 15.849C152.726 15.2734 153.312 14.48 153.634 13.5699C153.956 12.6597 154 11.6742 153.76 10.739Z" fill="#F47C2C"/>
<path d="M152.4 14.5791L147.17 14.1591V12.4291L146.1 14.2491L144.57 13.8691C144.57 13.8691 141.97 21.9291 140.76 21.7491C139.55 21.5691 139.02 17.5891 139.48 15.5091C139.94 13.4291 142.43 9.41914 146.59 9.39914C150.75 9.37914 153.35 10.7691 152.4 14.5791Z" fill="#F47C2C"/>
<path d="M144.92 44.3892C142.898 44.9794 140.841 45.4403 138.76 45.7692C138.09 45.7692 137.29 45.5992 137.06 44.9692C137.01 44.7284 137.01 44.4799 137.06 44.2392C137.237 41.423 137.591 38.6208 138.12 35.8492C138.5 33.3692 138.93 29.9792 137.7 27.6592C135.86 24.2192 132.25 27.4692 130.89 29.5692C128.6 33.0392 128.35 38.0392 128.21 42.0392C127.67 55.6792 131 56.2592 135.6 56.1192C140.2 55.9792 154.22 52.5092 154.35 50.6392C154.43 49.4492 153.35 46.0692 152.21 43.8492C151.7 42.8792 148.24 43.5792 144.92 44.3892Z" fill="#FFB531"/>
<path d="M144.64 72.179C143.974 92.939 142.54 113.652 140.34 134.319C140.27 134.959 141.27 134.949 141.34 134.319C143.52 113.652 144.954 92.939 145.64 72.179C145.66 71.539 144.66 71.539 144.64 72.179Z" fill="white"/>
<path d="M252.45 27.149C252.695 27.5197 252.824 27.9548 252.82 28.399L252.28 60.199C252.28 60.929 251.74 61.299 251.13 60.959L205.13 34.369C204.799 34.1473 204.524 33.8508 204.327 33.5034C204.131 33.1561 204.019 32.7675 204 32.369L204.53 0.888977C204.518 0.747248 204.54 0.604537 204.596 0.473641C204.652 0.342744 204.739 0.227753 204.85 0.138977C205.03 -0.0310227 205.32 -0.0610227 205.71 0.138977L251.48 26.239L251.74 26.389C252.038 26.5774 252.283 26.8391 252.45 27.149ZM250.02 57.509L250.49 29.509L229.29 34.859C229.088 34.8887 228.881 34.8424 228.71 34.729C228.483 34.5973 228.286 34.4203 228.13 34.209L215.02 16.129L207.02 5.12898L206.7 4.71898L206.24 32.219L249.98 57.479M247.66 26.849L209.49 5.09898L209.96 5.77898C212.467 9.21898 214.967 12.6623 217.46 16.109L225.1 26.639C226.16 28.099 227.83 29.939 228.86 31.639L228.96 31.579C229.798 31.235 230.68 31.0128 231.58 30.919L239.18 29.009L247.68 26.869M228.76 31.699H228.7C228.56 31.619 228.46 31.639 228.41 31.699C228.36 31.759 228.35 31.799 228.41 31.819C228.47 31.839 228.58 31.819 228.77 31.749" fill="#606060"/>
<path d="M255.671 34.3698C259.528 33.3802 261.576 28.3757 260.247 23.192C258.917 18.0082 254.712 14.6082 250.855 15.5978C246.998 16.5874 244.949 21.5919 246.279 26.7756C247.609 31.9594 251.814 35.3594 255.671 34.3698Z" fill="#EF5407"/>
<path d="M253.24 20.8591H253.89V29.0391H252.41V22.9291L250.83 23.8691V22.2691L253.24 20.8591Z" fill="white"/>
<path d="M189.08 95.7991L247.79 130.799C248.133 130.982 248.533 131.026 248.907 130.92C249.28 130.814 249.599 130.568 249.794 130.232C249.99 129.897 250.048 129.498 249.956 129.121C249.864 128.744 249.629 128.417 249.3 128.209L190.59 93.2091C190.248 93.0258 189.848 92.9824 189.474 93.0881C189.1 93.1939 188.782 93.4404 188.586 93.776C188.391 94.1116 188.333 94.5099 188.425 94.8873C188.517 95.2646 188.752 95.5915 189.08 95.7991Z" fill="#754C24"/>
<path d="M172.35 103.299L231.06 138.299C231.403 138.482 231.803 138.526 232.177 138.42C232.551 138.314 232.869 138.068 233.064 137.732C233.26 137.397 233.318 136.998 233.226 136.621C233.134 136.244 232.899 135.917 232.57 135.709L173.86 100.709C173.518 100.526 173.118 100.482 172.744 100.588C172.37 100.694 172.052 100.94 171.856 101.276C171.661 101.612 171.603 102.01 171.695 102.387C171.787 102.765 172.022 103.091 172.35 103.299Z" fill="#754C24"/>
<path d="M156.74 113.289L215.45 148.289C215.793 148.472 216.193 148.516 216.567 148.41C216.94 148.304 217.259 148.058 217.454 147.722C217.65 147.387 217.708 146.988 217.616 146.611C217.523 146.234 217.289 145.907 216.96 145.699L158.25 110.699C157.908 110.516 157.508 110.472 157.134 110.578C156.76 110.684 156.442 110.93 156.246 111.266C156.051 111.602 155.993 112 156.085 112.377C156.177 112.755 156.412 113.081 156.74 113.289Z" fill="#754C24"/>
<path d="M255.9 137.739C259.059 137.739 261.62 136.423 261.62 134.799C261.62 133.175 259.059 131.859 255.9 131.859C252.741 131.859 250.18 133.175 250.18 134.799C250.18 136.423 252.741 137.739 255.9 137.739Z" fill="#EF5407"/>
<path d="M240.12 144.979C243.279 144.979 245.84 143.663 245.84 142.039C245.84 140.415 243.279 139.099 240.12 139.099C236.961 139.099 234.4 140.415 234.4 142.039C234.4 143.663 236.961 144.979 240.12 144.979Z" fill="#EF5407"/>
<path d="M223.77 156.159C226.929 156.159 229.49 154.843 229.49 153.219C229.49 151.595 226.929 150.279 223.77 150.279C220.611 150.279 218.05 151.595 218.05 153.219C218.05 154.843 220.611 156.159 223.77 156.159Z" fill="#EF5407"/>
<path d="M88.5604 2.88915C94.4004 0.289147 98.9804 4.42915 98.7804 12.1192C98.5804 19.8092 93.6904 28.1191 87.8504 30.7491C87.1058 31.0877 86.3186 31.3232 85.5104 31.4492C80.8304 32.1392 77.4504 28.1492 77.6204 21.5192C77.6544 20.2789 77.7983 19.044 78.0504 17.8291C79.4104 11.3191 83.6504 5.03915 88.5604 2.88915ZM90.1904 20.8091C90.8217 19.7746 91.1668 18.5909 91.1904 17.3791C91.2504 15.1791 90.3904 14.0991 88.9504 14.7391L88.5704 14.9391L90.8604 10.0391V9.25915L85.4804 11.6491L85.4304 13.6491L88.4304 12.3191L86.5704 16.3191L87.2204 17.2591C87.4462 16.9936 87.7256 16.7789 88.0404 16.6291C88.9104 16.2391 89.5004 16.7491 89.4604 18.1491C89.4803 18.7019 89.347 19.2495 89.0753 19.7313C88.8035 20.213 88.4038 20.6103 87.9204 20.8791C87.1304 21.2291 86.6404 20.8791 86.4504 19.7491L84.8104 20.7491C84.7942 21.1534 84.8684 21.5561 85.0275 21.9281C85.1867 22.3 85.4268 22.6318 85.7304 22.8991C86.0532 23.0941 86.4232 23.1971 86.8004 23.1971C87.1775 23.1971 87.5475 23.0941 87.8704 22.8991C88.8457 22.4456 89.6538 21.697 90.1804 20.7591" fill="#EF5407"/>
<path d="M90.8804 9.23889V10.0189L88.5504 14.9389L88.9304 14.7389C90.3704 14.0989 91.2304 15.1789 91.1704 17.3789C91.1468 18.5906 90.8017 19.7743 90.1704 20.8089C89.6438 21.7468 88.8357 22.4954 87.8604 22.9489C87.5375 23.1438 87.1675 23.2469 86.7904 23.2469C86.4132 23.2469 86.0432 23.1438 85.7204 22.9489C85.4168 22.6815 85.1767 22.3497 85.0175 21.9778C84.8584 21.6059 84.7842 21.2031 84.8004 20.7989L86.4404 19.7989C86.6404 20.9089 87.1204 21.2789 87.9104 20.9289C88.3938 20.66 88.7935 20.2628 89.0653 19.781C89.337 19.2992 89.4703 18.7517 89.4504 18.1989C89.4504 16.7989 88.9004 16.2889 88.0304 16.6789C87.7156 16.8287 87.4362 17.0434 87.2104 17.3089L86.5604 16.3689L88.4204 12.3689L85.4204 13.6989L85.4704 11.6989L90.8804 9.23889Z" fill="white"/>
<path d="M71.3004 8.75894C73.6604 7.75894 75.5104 9.38894 75.4304 12.4989L75.3504 17.5489C76.2794 17.4963 77.2109 17.5908 78.1104 17.8289C77.8583 19.0438 77.7144 20.2787 77.6804 21.5189C77.5104 28.1489 80.8904 32.1389 85.5704 31.4489C85.5704 31.5289 85.5704 31.6089 85.5704 31.6889L85.3504 38.7589C85.138 42.6163 85.9232 46.4634 87.6304 49.9289L91.1004 56.3589C91.1958 56.5817 91.2451 56.8216 91.2451 57.0639C91.2451 57.3063 91.1958 57.5462 91.1004 57.7689C90.9394 58.253 90.5996 58.6572 90.1504 58.8989L49.4804 76.9489C49.4018 76.9929 49.3148 77.0201 49.2252 77.0287C49.1355 77.0374 49.045 77.0273 48.9594 76.9991C48.8738 76.9708 48.7951 76.9252 48.7281 76.8649C48.6611 76.8046 48.6074 76.7311 48.5704 76.6489C48.4758 76.4242 48.427 76.1828 48.427 75.9389C48.427 75.6951 48.4758 75.4537 48.5704 75.2289L52.4504 65.5389C54.2185 61.247 55.2171 56.6772 55.4004 52.0389L55.5804 45.0389C55.8104 36.0389 60.5104 26.5289 66.7504 21.3489L66.8804 16.2889C66.9504 13.1889 68.9404 9.80894 71.3004 8.75894Z" fill="#8C32FF"/>
<path d="M76.4604 67.749C75.1704 71.609 72.5604 75.059 69.5804 76.379C68.9851 76.7081 68.3241 76.9005 67.6452 76.9422C66.9663 76.9839 66.2867 76.8739 65.6556 76.6201C65.0246 76.3664 64.458 75.9752 63.9969 75.4752C63.5359 74.9751 63.1921 74.3786 62.9904 73.729L76.4604 67.749Z" fill="#8C32FF"/>
<defs>
<linearGradient id="paint0_linear_20_38" x1="125.18" y1="170.669" x2="107.44" y2="196.929" gradientUnits="userSpaceOnUse">
<stop stop-color="#DA2E81"/>
<stop offset="1" stop-color="#EF7575"/>
</linearGradient>
<linearGradient id="paint1_linear_20_38" x1="127.72" y1="162.669" x2="136.66" y2="152.559" gradientUnits="userSpaceOnUse">
<stop stop-color="white" stop-opacity="0"/>
<stop offset="1" stop-color="#FF6A00"/>
</linearGradient>
</defs>
</svg>
