<svg width="600" height="486" viewBox="0 0 600 486" fill="none" xmlns="http://www.w3.org/2000/svg">
<path d="M382.081 318.027C377.442 310.373 377.545 300.763 382.348 293.182L472.202 151.365C476.616 144.398 484.343 140.194 492.616 140.258L576.379 140.905C595.42 141.052 606.547 162.233 595.809 177.891L516.533 293.494C511.103 301.413 510.991 311.787 516.251 319.788L593.033 436.597C603.433 452.419 591.853 473.424 572.812 473.277L489.049 472.63C480.776 472.566 473.14 468.243 468.877 461.209L382.081 318.027Z" fill="white"/>
<path d="M201.272 485.114C173.306 485.114 144.386 482.587 114.513 477.534C85.2757 472.48 58.5807 463.953 34.4281 451.951C21.7162 445.635 12.5 437.739 6.77968 428.264C1.69492 418.158 -0.529662 408.051 0.105932 397.945C0.741528 387.838 3.9195 378.679 9.63986 370.468C15.9958 362.256 23.9407 356.887 33.4747 354.36C43.6442 351.202 54.7671 352.149 66.8434 357.203C92.9028 367.941 116.738 375.521 138.348 379.942C159.958 384.364 181.251 386.575 202.225 386.575C229.556 386.575 249.259 382.469 261.335 374.258C274.047 365.414 280.403 354.044 280.403 340.148C280.403 327.515 276.272 318.04 268.009 311.723C259.746 305.407 247.67 300.985 231.78 298.459L131.674 280.456C92.2672 273.508 61.7587 259.296 40.1484 237.819C19.1738 215.711 8.68647 187.603 8.68647 153.493C8.68647 121.91 17.5848 94.7487 35.3815 72.0091C53.1781 48.6377 77.6485 30.9513 108.793 18.9498C140.572 6.31658 176.484 0 216.526 0C245.128 0 271.505 2.52664 295.658 7.57991C319.81 12.6332 343.009 20.8448 365.255 32.2146C376.696 37.8995 384.641 45.4794 389.09 54.9543C394.175 64.4292 395.764 74.2198 393.857 84.3264C392.586 94.4329 388.772 103.592 382.416 111.804C376.06 120.015 367.798 125.384 357.628 127.911C348.094 130.437 336.971 129.174 324.259 124.121C303.92 114.646 285.17 108.014 268.009 104.224C250.848 99.802 234.323 97.5912 218.433 97.5912C189.831 97.5912 169.174 102.329 156.462 111.804C143.75 120.647 137.394 132.017 137.394 145.913C137.394 156.651 140.89 165.81 147.882 173.39C155.509 180.338 166.95 185.076 182.204 187.603L282.31 205.605C323.624 212.553 355.086 226.449 376.696 247.294C398.306 267.507 409.111 295.3 409.111 330.673C409.111 378.679 390.043 416.579 351.908 444.372C314.408 471.533 264.196 485.114 201.272 485.114Z" fill="white"/>
</svg>
