<svg width="692" height="525" viewBox="0 0 692 525" fill="none" xmlns="http://www.w3.org/2000/svg">
<path d="M454.375 333.021C449.765 325.368 449.867 315.757 454.64 308.177L543.938 166.359C548.325 159.393 556.004 155.188 564.226 155.252L647.47 155.9C666.393 156.047 677.451 177.228 666.78 192.886L587.995 308.489C582.598 316.407 582.487 326.782 587.714 334.783L664.021 451.592C674.356 467.413 662.848 488.419 643.925 488.272L560.681 487.624C552.459 487.56 544.871 483.238 540.633 476.204L454.375 333.021Z" fill="#FB5D96"/>
<path d="M274.686 500.108C246.893 500.108 218.153 497.582 188.465 492.528C159.408 487.475 132.879 478.948 108.876 466.946C96.2425 460.63 87.0835 452.734 81.3985 443.259C76.3453 433.152 74.1345 423.046 74.7661 412.939C75.3978 402.833 78.5561 393.674 84.241 385.462C90.5576 377.251 98.4533 371.882 107.928 369.355C118.035 366.197 129.089 367.144 141.09 372.197C166.988 382.936 190.675 390.515 212.152 394.937C233.628 399.359 254.789 401.569 275.633 401.569C302.795 401.569 322.376 397.464 334.378 389.252C347.011 380.409 353.327 369.039 353.327 355.143C353.327 342.509 349.222 333.035 341.01 326.718C332.798 320.401 320.797 315.98 305.006 313.453L205.519 295.451C166.357 288.503 136.037 274.29 114.561 252.814C93.7159 230.706 83.2935 202.597 83.2935 168.488C83.2935 136.905 92.1367 109.743 109.823 87.0037C127.51 63.6323 151.828 45.9459 182.78 33.9444C214.363 21.3112 250.051 14.9946 289.846 14.9946C318.27 14.9946 344.484 17.5213 368.487 22.5746C392.49 27.6278 415.546 35.8394 437.654 47.2092C449.024 52.8941 456.919 60.474 461.341 69.9489C466.394 79.4238 467.973 89.2145 466.078 99.321C464.815 109.428 461.025 118.587 454.709 126.798C448.392 135.01 440.18 140.379 430.074 142.905C420.599 145.432 409.545 144.169 396.912 139.116C376.699 129.641 358.065 123.008 341.01 119.218C323.955 114.797 307.532 112.586 291.741 112.586C263.316 112.586 242.787 117.323 230.154 126.798C217.521 135.641 211.204 147.011 211.204 160.908C211.204 171.646 214.678 180.805 221.627 188.385C229.207 195.333 240.576 200.071 255.736 202.597L355.222 220.599C396.28 227.548 427.547 241.444 449.024 262.289C470.5 282.502 481.238 310.295 481.238 345.668C481.238 393.674 462.288 431.573 424.389 459.366C387.121 486.528 337.22 500.108 274.686 500.108Z" fill="#5782F0"/>
</svg>
