<svg width="450" height="450" viewBox="0 0 450 450" fill="none" xmlns="http://www.w3.org/2000/svg">
<circle cx="225" cy="225" r="225" fill="url(#paint0_linear_3026_1272)"/>
<path d="M40.3139 244.894L113.454 378.534C117.493 385.915 122.976 390.678 125.698 389.172L357.399 261.026L394.229 144.292C395.258 141.028 390.724 132.743 387.432 131.871L269.63 100.657L37.9297 228.803C35.2072 230.309 36.2747 237.513 40.3139 244.894Z" fill="#E6BE94"/>
<path d="M249.627 216.652L392.592 137.583L392.094 136.674C390.713 134.324 388.956 132.273 387.431 131.87L269.63 100.657L205.543 136.102L249.627 216.652Z" fill="#FFD788"/>
<path d="M40.3139 244.894L113.454 378.534C117.493 385.915 122.976 390.678 125.698 389.172L357.399 261.026C351.953 264.038 340.989 254.511 332.911 239.751C324.833 224.99 322.697 210.581 328.143 207.57C322.697 210.581 311.733 201.055 303.655 186.294C295.577 171.534 293.441 157.125 298.886 154.113C293.441 157.125 282.477 147.599 274.399 132.838C266.32 118.078 264.185 103.669 269.63 100.657L37.9297 228.803C35.2072 230.309 36.2747 237.513 40.3139 244.894Z" fill="#FFCD00"/>
<path d="M328.143 207.57C322.697 210.581 311.733 201.055 303.655 186.295C296.257 172.777 293.92 159.665 297.747 155.22L62.4563 285.352L91.7124 338.808L327.003 208.676C327.356 208.268 327.684 207.823 328.143 207.57Z" fill="#63B3ED"/>
<path d="M357.399 261.026C351.953 264.037 340.989 254.511 332.911 239.751C325.513 226.233 323.176 213.121 327.003 208.676L91.7124 338.808L113.654 378.9C117.694 386.28 123.176 391.043 125.898 389.538L356.259 262.132C356.612 261.724 356.94 261.28 357.399 261.026Z" fill="#F687B3"/>
<path d="M270.032 101.39C264.586 104.402 266.722 118.811 274.801 133.572C282.199 147.089 291.965 156.092 297.748 155.222L62.4575 285.354L40.5154 245.261C36.4762 237.881 35.4087 230.676 38.1312 229.171L268.492 101.766C269.024 101.685 269.573 101.644 270.032 101.39Z" fill="#4FD1C5"/>
<path d="M378.534 194.036L394.228 144.29C395.257 141.026 390.722 132.74 387.429 131.868L337.231 118.569L378.534 194.036Z" fill="#5C546A"/>
<path d="M392.611 137.572C391.182 134.828 389.158 132.326 387.431 131.869L337.232 118.568L358.084 156.669L392.611 137.572Z" fill="#868491"/>
<defs>
<linearGradient id="paint0_linear_3026_1272" x1="-12" y1="225" x2="458.5" y2="225" gradientUnits="userSpaceOnUse">
<stop stop-color="#F687B3"/>
<stop offset="1" stop-color="#5EA3F5"/>
</linearGradient>
</defs>
</svg>
