<svg width="1627" height="227" viewBox="0 0 1627 227" fill="none" xmlns="http://www.w3.org/2000/svg">
<path d="M379.536 83.2713C379.536 75.4313 376.456 68.618 370.296 62.8313C364.323 57.0446 355.83 54.1513 344.816 54.1513C335.483 54.1513 328.11 56.1113 322.696 60.0313C317.283 63.7646 314.576 68.898 314.576 75.4313C314.576 78.7913 315.23 81.8713 316.536 84.6713C317.843 87.2846 320.083 89.7113 323.256 91.9513C326.616 94.0046 330.91 95.8713 336.136 97.5513C341.55 99.2313 348.363 100.818 356.576 102.311C377.11 106.045 392.79 112.298 403.616 121.071C414.443 129.845 419.856 142.818 419.856 159.991V163.351C419.856 172.498 418.176 180.805 414.816 188.271C411.643 195.551 406.976 201.805 400.816 207.031C394.656 212.258 387.19 216.271 378.416 219.071C369.643 221.871 359.75 223.271 348.736 223.271C335.856 223.271 324.47 221.498 314.576 217.951C304.87 214.218 296.75 209.178 290.216 202.831C283.683 196.298 278.736 188.738 275.376 180.151C272.016 171.378 270.336 161.858 270.336 151.591V143.191H307.296V149.911C307.296 161.671 310.656 171.098 317.376 178.191C324.283 185.098 334.923 188.551 349.296 188.551C360.496 188.551 368.803 186.125 374.216 181.271C379.63 176.418 382.336 170.631 382.336 163.911C382.336 160.738 381.776 157.751 380.656 154.951C379.536 151.965 377.576 149.351 374.776 147.111C371.976 144.685 368.15 142.538 363.296 140.671C358.443 138.805 352.283 137.218 344.816 135.911C334.923 134.231 325.87 132.085 317.656 129.471C309.443 126.671 302.256 123.031 296.096 118.551C290.123 114.071 285.456 108.471 282.096 101.751C278.736 95.0313 277.056 86.818 277.056 77.1113V75.4313C277.056 67.4046 278.643 60.0313 281.816 53.3113C285.176 46.4046 289.75 40.4313 295.536 35.3913C301.51 30.3513 308.603 26.4313 316.816 23.6313C325.216 20.8313 334.55 19.4313 344.816 19.4313C356.39 19.4313 366.656 21.1113 375.616 24.4713C384.576 27.6446 392.043 32.0313 398.016 37.6313C404.176 43.2313 408.75 49.6713 411.736 56.9513C414.91 64.2313 416.496 71.8846 416.496 79.9113V89.9913H379.536V83.2713ZM472.022 131.431H478.742L515.702 80.4713H554.342V82.1513L509.542 145.711V150.751L558.822 217.671V219.351H518.502L478.742 165.031H472.022V219.351H436.742V23.3513H472.022V131.431ZM705.067 151.591C705.067 163.165 703.107 173.431 699.187 182.391C695.267 191.165 689.947 198.631 683.227 204.791C676.507 210.765 668.76 215.338 659.987 218.511C651.4 221.685 642.347 223.271 632.827 223.271C623.307 223.271 614.16 221.685 605.387 218.511C596.8 215.338 589.147 210.765 582.427 204.791C575.707 198.631 570.387 191.165 566.467 182.391C562.547 173.431 560.587 163.165 560.587 151.591V148.231C560.587 136.845 562.547 126.765 566.467 117.991C570.387 109.031 575.707 101.471 582.427 95.3113C589.147 89.1513 596.8 84.4846 605.387 81.3113C614.16 78.138 623.307 76.5513 632.827 76.5513C642.347 76.5513 651.4 78.138 659.987 81.3113C668.76 84.4846 676.507 89.1513 683.227 95.3113C689.947 101.471 695.267 109.031 699.187 117.991C703.107 126.765 705.067 136.845 705.067 148.231V151.591ZM632.827 189.671C637.867 189.671 642.627 188.831 647.107 187.151C651.587 185.471 655.507 183.045 658.867 179.871C662.227 176.698 664.84 172.871 666.707 168.391C668.76 163.725 669.787 158.498 669.787 152.711V147.111C669.787 141.325 668.76 136.191 666.707 131.711C664.84 127.045 662.227 123.125 658.867 119.951C655.507 116.778 651.587 114.351 647.107 112.671C642.627 110.991 637.867 110.151 632.827 110.151C627.787 110.151 623.027 110.991 618.547 112.671C614.067 114.351 610.147 116.778 606.787 119.951C603.427 123.125 600.72 127.045 598.667 131.711C596.8 136.191 595.867 141.325 595.867 147.111V152.711C595.867 158.498 596.8 163.725 598.667 168.391C600.72 172.871 603.427 176.698 606.787 179.871C610.147 183.045 614.067 185.471 618.547 187.151C623.027 188.831 627.787 189.671 632.827 189.671ZM848.512 151.591C848.512 163.165 846.552 173.431 842.632 182.391C838.712 191.165 833.392 198.631 826.672 204.791C819.952 210.765 812.206 215.338 803.432 218.511C794.846 221.685 785.792 223.271 776.272 223.271C766.752 223.271 757.606 221.685 748.832 218.511C740.246 215.338 732.592 210.765 725.872 204.791C719.152 198.631 713.832 191.165 709.912 182.391C705.992 173.431 704.032 163.165 704.032 151.591V148.231C704.032 136.845 705.992 126.765 709.912 117.991C713.832 109.031 719.152 101.471 725.872 95.3113C732.592 89.1513 740.246 84.4846 748.832 81.3113C757.606 78.138 766.752 76.5513 776.272 76.5513C785.792 76.5513 794.846 78.138 803.432 81.3113C812.206 84.4846 819.952 89.1513 826.672 95.3113C833.392 101.471 838.712 109.031 842.632 117.991C846.552 126.765 848.512 136.845 848.512 148.231V151.591ZM776.272 189.671C781.312 189.671 786.072 188.831 790.552 187.151C795.032 185.471 798.952 183.045 802.312 179.871C805.672 176.698 808.286 172.871 810.152 168.391C812.206 163.725 813.232 158.498 813.232 152.711V147.111C813.232 141.325 812.206 136.191 810.152 131.711C808.286 127.045 805.672 123.125 802.312 119.951C798.952 116.778 795.032 114.351 790.552 112.671C786.072 110.991 781.312 110.151 776.272 110.151C771.232 110.151 766.472 110.991 761.992 112.671C757.512 114.351 753.592 116.778 750.232 119.951C746.872 123.125 744.166 127.045 742.112 131.711C740.246 136.191 739.312 141.325 739.312 147.111V152.711C739.312 158.498 740.246 163.725 742.112 168.391C744.166 172.871 746.872 176.698 750.232 179.871C753.592 183.045 757.512 185.471 761.992 187.151C766.472 188.831 771.232 189.671 776.272 189.671ZM855.038 185.751H903.758V56.9513H856.718V23.3513H939.038V185.751H984.398V219.351H855.038V185.751ZM995.403 80.4713H1036.56V23.3513H1071.84V80.4713H1121.96V114.071H1071.84V177.351C1071.84 182.951 1074.36 185.751 1079.4 185.751H1116.92V219.351H1058.12C1051.78 219.351 1046.55 217.298 1042.44 213.191C1038.52 209.085 1036.56 203.858 1036.56 197.511V114.071H995.403V80.4713ZM1136.05 80.4713H1194.85V100.631H1199.89C1202.5 92.978 1206.89 87.098 1213.05 82.9913C1219.39 78.698 1226.95 76.5513 1235.73 76.5513C1249.54 76.5513 1260.65 80.938 1269.05 89.7113C1277.45 98.298 1281.65 111.458 1281.65 129.191V135.351L1245.25 138.711V134.791C1245.25 127.138 1243.29 121.071 1239.37 116.591C1235.45 111.925 1229.57 109.591 1221.73 109.591C1213.89 109.591 1207.73 112.298 1203.25 117.711C1198.77 123.125 1196.53 130.871 1196.53 140.951V185.751H1228.45V219.351H1132.69V185.751H1161.25V114.071H1136.05V80.4713ZM1376.09 199.191C1372.36 207.965 1367.13 214.218 1360.41 217.951C1353.69 221.498 1345.85 223.271 1336.89 223.271C1328.49 223.271 1320.56 221.685 1313.09 218.511C1305.81 215.338 1299.37 210.671 1293.77 204.511C1288.17 198.351 1283.69 190.885 1280.33 182.111C1277.16 173.338 1275.57 163.351 1275.57 152.151V147.671C1275.57 136.658 1277.16 126.765 1280.33 117.991C1283.51 109.218 1287.8 101.751 1293.21 95.5913C1298.63 89.4313 1304.88 84.7646 1311.97 81.5913C1319.25 78.2313 1327 76.5513 1335.21 76.5513C1345.11 76.5513 1353.04 78.2313 1359.01 81.5913C1365.17 84.9513 1370.03 90.178 1373.57 97.2713H1378.61V80.4713H1413.89V177.351C1413.89 182.951 1416.41 185.751 1421.45 185.751H1426.77V219.351H1402.69C1396.35 219.351 1391.12 217.485 1387.01 213.751C1383.09 210.018 1381.13 205.165 1381.13 199.191H1376.09ZM1344.73 189.671C1355 189.671 1363.21 186.311 1369.37 179.591C1375.53 172.685 1378.61 163.351 1378.61 151.591V148.231C1378.61 136.471 1375.53 127.231 1369.37 120.511C1363.21 113.605 1355 110.151 1344.73 110.151C1334.47 110.151 1326.25 113.605 1320.09 120.511C1313.93 127.231 1310.85 136.471 1310.85 148.231V151.591C1310.85 163.351 1313.93 172.685 1320.09 179.591C1326.25 186.311 1334.47 189.671 1344.73 189.671ZM1476.14 131.431H1482.86L1519.82 80.4713H1558.46V82.1513L1513.66 145.711V150.751L1562.94 217.671V219.351H1522.62L1482.86 165.031H1476.14V219.351H1440.86V23.3513H1476.14V131.431Z" fill="white"/>
<path fill-rule="evenodd" clip-rule="evenodd" d="M122.268 1.48547C118.156 -0.495155 113.365 -0.495156 109.252 1.48547L28.4486 40.3983C24.3358 42.3789 21.3488 46.1246 20.333 50.575L0.376217 138.011C-0.639562 142.462 0.426512 147.132 3.27266 150.701L31.2884 185.832C29.5058 179.762 28.6145 173.335 28.6145 166.551C28.6145 163.951 28.7145 161.351 28.9145 158.751C29.1145 156.151 29.5145 153.451 30.1145 150.651L31.6145 143.751H71.2145L70.0145 148.851C69.2145 152.651 68.8145 156.951 68.8145 161.751C68.8145 171.351 71.8145 178.851 77.8145 184.251C84.0145 189.651 93.2145 192.351 105.414 192.351C118.614 192.351 128.914 189.651 136.314 184.251C143.714 178.651 147.415 171.051 147.415 161.451C147.415 153.851 144.214 147.951 137.814 143.751C131.614 139.551 121.114 136.351 106.314 134.151C99.3145 133.151 92.4145 131.351 85.6145 128.751C79.0145 126.151 73.1145 122.551 67.9145 117.951C62.7145 113.351 58.5145 107.751 55.3145 101.151C52.1145 94.3513 50.5145 86.3513 50.5145 77.1513C50.5145 67.7513 52.2145 59.0513 55.6145 51.0513C59.2145 42.8513 64.4145 35.8513 71.2145 30.0513C78.2145 24.0513 86.7145 19.4513 96.7145 16.2513C106.914 12.8513 118.614 11.1513 131.814 11.1513C135.858 11.1513 139.746 11.3338 143.477 11.6988L122.268 1.48547ZM192.007 35.0698C194.437 38.1339 196.473 41.4611 198.115 45.0513C201.314 51.8513 202.915 59.2513 202.915 67.2513C202.915 69.4513 202.814 71.6513 202.615 73.8513C202.415 76.0513 202.015 78.5513 201.415 81.3513L200.214 86.7513H160.615L161.514 82.8513C162.114 79.8513 162.414 77.1513 162.414 74.7513C162.414 66.9513 159.614 60.6513 154.014 55.8513C148.414 50.8513 139.814 48.3513 128.214 48.3513C123.614 48.3513 119.114 48.8513 114.715 49.8513C110.314 50.8513 106.414 52.4513 103.014 54.6513C99.6145 56.6513 96.9145 59.2513 94.9145 62.4513C92.9145 65.6513 91.9145 69.3513 91.9145 73.5513C91.9145 80.5513 94.8145 86.0513 100.614 90.0513C106.614 94.0513 116.214 97.1513 129.414 99.3513C148.014 102.351 162.615 108.351 173.214 117.351C184.014 126.151 189.414 139.051 189.414 156.051C189.414 167.451 187.314 177.651 183.115 186.651C179.115 195.651 173.314 203.351 165.714 209.751C158.314 216.151 149.314 221.051 138.714 224.451C136.357 225.207 133.935 225.88 131.449 226.468H160.603C165.167 226.468 169.484 224.389 172.33 220.82L228.248 150.701C231.094 147.132 232.16 142.462 231.144 138.011L211.187 50.575C210.172 46.1246 207.184 42.3789 203.072 40.3983L192.007 35.0698ZM75.8003 226.468C73.8087 225.958 71.8801 225.386 70.0145 224.751C65.6682 223.179 61.664 221.372 58.0019 219.33L59.1903 220.82C62.0364 224.389 66.3529 226.468 70.9177 226.468H75.8003Z" fill="white"/>
</svg>
