<svg width="420" height="420" viewBox="0 0 420 420" fill="none" xmlns="http://www.w3.org/2000/svg">
<rect y="-0.000488281" width="420" height="420" rx="50" fill="#63B3ED"/>
<path d="M60 152.509C60 135.388 73.8792 121.509 91 121.509H114.218C116.979 121.509 119.218 123.748 119.218 126.509V294.444C119.218 297.205 116.979 299.444 114.218 299.444H91C73.8792 299.444 60 285.565 60 268.444V152.509Z" fill="#FC8181"/>
<path d="M351.568 201.365C356.063 206.608 356.063 214.345 351.568 219.588L294.565 286.083C286.106 295.95 269.936 289.968 269.936 276.971V143.982C269.936 130.985 286.106 125.003 294.565 134.87L351.568 201.365Z" fill="#FFD4A0"/>
<path d="M127.443 126.509C127.443 123.748 129.681 121.509 132.443 121.509H268.861C285.239 121.509 298.517 134.787 298.517 151.165V151.165C298.517 167.543 285.239 180.821 268.861 180.821H127.443V126.509Z" fill="#B794F4"/>
<path d="M127.443 180.821H268.861C285.239 180.821 298.517 194.098 298.517 210.477V210.477C298.517 226.855 285.239 240.132 268.861 240.132H127.443V180.821Z" fill="#9F7AEA"/>
<path d="M127.443 240.132H268.861C285.239 240.132 298.517 253.41 298.517 269.788V269.788C298.517 286.166 285.239 299.444 268.861 299.444H132.443C129.681 299.444 127.443 297.205 127.443 294.444V240.132Z" fill="#805AD5"/>
<path d="M351.943 201.672C356.254 206.86 356.252 214.384 351.94 219.57L334.113 241.01C325.745 251.075 309.371 245.173 309.349 232.083L309.275 189.099C309.253 175.983 325.661 170.04 334.043 180.128L351.943 201.672Z" fill="#2D3748"/>
</svg>
