<svg width="1000" height="1000" viewBox="0 0 1000 1000" fill="none" xmlns="http://www.w3.org/2000/svg">
<rect width="1000" height="1000" rx="100" fill="#5782F0"/>
<path d="M622.62 579.623C617.367 570.904 617.484 559.955 622.921 551.319L724.657 389.748C729.654 381.812 738.403 377.022 747.77 377.095L842.609 377.832C864.167 378 876.766 402.131 864.608 419.97L774.849 551.674C768.701 560.696 768.575 572.515 774.53 581.63L861.464 714.709C873.24 732.734 860.129 756.665 838.57 756.497L743.731 755.76C734.364 755.687 725.719 750.762 720.891 742.749L622.62 579.623Z" fill="#FB5D96"/>
<path d="M417.903 770.874C386.239 770.874 353.495 767.995 319.672 762.238C286.569 756.481 256.344 746.766 228.998 733.093C214.606 725.897 204.171 716.901 197.694 706.107C191.937 694.593 189.418 683.078 190.138 671.564C190.858 660.05 194.456 649.615 200.932 640.26C208.129 630.905 217.124 624.788 227.919 621.909C239.433 618.311 252.027 619.391 265.7 625.148C295.205 637.381 322.191 646.017 346.659 651.055C371.126 656.092 395.234 658.611 418.982 658.611C449.927 658.611 472.235 653.933 485.908 644.578C500.301 634.503 507.497 621.55 507.497 605.718C507.497 591.325 502.82 580.53 493.465 573.334C484.109 566.138 470.436 561.1 452.445 558.222L339.103 537.712C294.485 529.796 259.943 513.604 235.475 489.136C211.727 463.949 199.853 431.925 199.853 393.065C199.853 357.083 209.928 326.139 230.078 300.232C250.228 273.605 277.934 253.456 313.196 239.783C349.178 225.39 389.837 218.193 435.174 218.193C467.558 218.193 497.423 221.072 524.769 226.829C552.115 232.586 578.382 241.941 603.569 254.895C616.522 261.372 625.518 270.007 630.555 280.802C636.312 291.596 638.111 302.751 635.953 314.265C634.513 325.779 630.195 336.214 622.999 345.569C615.803 354.924 606.447 361.041 594.933 363.92C584.139 366.798 571.545 365.359 557.152 359.602C534.124 348.807 512.895 341.251 493.465 336.933C474.034 331.896 455.324 329.377 437.333 329.377C404.949 329.377 381.561 334.775 367.168 345.569C352.776 355.644 345.579 368.597 345.579 384.429C345.579 396.663 349.537 407.098 357.453 415.734C366.089 423.65 379.042 429.047 396.314 431.925L509.656 452.435C556.433 460.351 592.055 476.183 616.522 499.931C640.99 522.959 653.224 554.623 653.224 594.923C653.224 649.615 631.635 692.793 588.457 724.457C545.998 755.402 489.147 770.874 417.903 770.874Z" fill="white"/>
</svg>
