<svg width="3911" height="744" viewBox="0 0 3911 744" fill="none" xmlns="http://www.w3.org/2000/svg">
<path d="M642.499 471.384C635.966 460.54 636.112 446.923 642.875 436.183L769.399 235.244C775.614 225.374 786.494 219.417 798.144 219.507L916.091 220.424C942.903 220.633 958.571 250.644 943.451 272.829L831.821 436.625C824.175 447.845 824.018 462.544 831.424 473.88L939.541 639.384C954.185 661.802 937.88 691.564 911.068 691.355L793.121 690.438C781.471 690.348 770.72 684.223 764.716 674.257L642.499 471.384Z" fill="#FB5D96"/>
<path d="M387.901 708.273C348.522 708.273 307.8 704.693 265.736 697.533C224.567 690.373 186.977 678.291 152.968 661.286C135.068 652.336 122.091 641.149 114.036 627.724C106.876 613.404 103.744 599.085 104.639 584.765C105.534 570.445 110.009 557.468 118.064 545.833C127.014 534.198 138.201 526.591 151.626 523.011C165.945 518.536 181.608 519.879 198.612 527.039C235.307 542.253 268.868 552.993 299.298 559.258C329.727 565.523 359.709 568.655 389.244 568.655C427.728 568.655 455.472 562.838 472.477 551.203C490.377 538.673 499.326 522.564 499.326 502.874C499.326 484.974 493.509 471.55 481.874 462.6C470.24 453.65 453.235 447.385 430.86 443.805L289.9 418.298C234.412 408.453 191.452 388.316 161.023 357.887C131.489 326.562 116.721 286.736 116.721 238.407C116.721 193.657 129.251 155.173 154.311 122.954C179.37 89.8394 213.827 64.7799 257.681 47.7752C302.43 29.8755 352.997 20.9257 409.381 20.9257C449.655 20.9257 486.797 24.5057 520.806 31.6655C554.815 38.8254 587.482 50.4602 618.807 66.5699C634.916 74.6247 646.104 85.3645 652.369 98.7893C659.528 112.214 661.766 126.086 659.081 140.406C657.291 154.726 651.921 167.703 642.971 179.338C634.021 190.973 622.387 198.58 608.067 202.16C594.642 205.74 578.98 203.95 561.08 196.79C532.441 183.365 506.039 173.968 481.874 168.598C457.71 162.333 434.44 159.201 412.066 159.201C371.791 159.201 342.704 165.913 324.805 179.338C306.905 191.867 297.955 207.977 297.955 227.667C297.955 242.882 302.878 255.859 312.723 266.599C323.462 276.443 339.572 283.156 361.052 286.736L502.011 312.243C560.185 322.087 604.487 341.777 634.916 371.312C665.346 399.951 680.561 439.33 680.561 489.449C680.561 557.468 653.711 611.167 600.012 650.546C547.208 689.03 476.504 708.273 387.901 708.273Z" fill="#5782F0"/>
<path d="M1206.63 602.851C1188.19 602.851 1169.12 601.175 1149.43 597.823C1130.15 594.47 1112.55 588.813 1096.63 580.851C1088.25 576.661 1082.17 571.422 1078.4 565.137C1075.05 558.432 1073.58 551.727 1074 545.022C1074.42 538.317 1076.51 532.241 1080.28 526.793C1084.47 521.345 1089.71 517.783 1096 516.107C1102.7 514.012 1110.04 514.64 1118 517.993C1135.18 525.117 1150.89 530.145 1165.14 533.079C1179.39 536.012 1193.43 537.479 1207.26 537.479C1225.28 537.479 1238.27 534.755 1246.23 529.307C1254.61 523.441 1258.8 515.898 1258.8 506.678C1258.8 498.297 1256.08 492.012 1250.63 487.821C1245.18 483.63 1237.22 480.697 1226.74 479.021L1160.74 467.078C1134.76 462.468 1114.65 453.039 1100.4 438.792C1086.57 424.125 1079.66 405.477 1079.66 382.848C1079.66 361.895 1085.52 343.876 1097.26 328.79C1108.99 313.285 1125.12 301.551 1145.66 293.589C1166.61 285.208 1190.29 281.018 1216.69 281.018C1235.54 281.018 1252.93 282.694 1268.86 286.046C1284.78 289.399 1300.08 294.846 1314.74 302.389C1322.29 306.161 1327.53 311.19 1330.46 317.475C1333.81 323.761 1334.86 330.257 1333.6 336.961C1332.76 343.666 1330.25 349.743 1326.06 355.19C1321.87 360.638 1316.42 364.2 1309.72 365.876C1303.43 367.552 1296.1 366.714 1287.72 363.362C1274.31 357.076 1261.94 352.676 1250.63 350.162C1239.31 347.228 1228.42 345.762 1217.94 345.762C1199.09 345.762 1185.47 348.904 1177.09 355.19C1168.7 361.057 1164.51 368.6 1164.51 377.819C1164.51 384.943 1166.82 391.019 1171.43 396.048C1176.46 400.658 1184 403.801 1194.06 405.477L1260.06 417.42C1287.3 422.029 1308.04 431.249 1322.29 445.077C1336.54 458.487 1343.66 476.926 1343.66 500.393C1343.66 532.241 1331.09 557.384 1305.94 575.822C1281.22 593.842 1248.11 602.851 1206.63 602.851ZM1445.61 601.594C1430.1 601.594 1418.16 597.404 1409.78 589.023C1401.82 580.642 1397.84 568.698 1397.84 553.193V195.531C1397.84 179.607 1401.82 167.663 1409.78 159.701C1418.16 151.32 1430.1 147.13 1445.61 147.13C1460.69 147.13 1472.22 151.32 1480.18 159.701C1488.56 167.663 1492.75 179.607 1492.75 195.531V414.906H1494.01L1585.15 313.704C1594.37 303.228 1602.75 295.475 1610.3 290.446C1618.26 284.999 1628.73 282.275 1641.72 282.275C1654.72 282.275 1664.56 285.627 1671.27 292.332C1678.39 299.037 1681.95 307.209 1681.95 316.847C1682.37 326.066 1678.39 335.495 1670.01 345.133L1573.84 452.62V416.791L1680.7 539.993C1688.66 549.632 1692.01 559.27 1690.75 568.908C1689.92 578.546 1685.73 586.508 1678.18 592.794C1670.64 598.661 1661 601.594 1649.27 601.594C1635.02 601.594 1623.5 598.87 1614.7 593.423C1606.31 587.975 1597.72 579.594 1588.92 568.279L1494.01 462.678H1492.75V553.193C1492.75 585.461 1477.04 601.594 1445.61 601.594ZM1891.78 602.851C1858.67 602.851 1829.76 596.356 1805.03 583.365C1780.73 570.375 1761.87 551.727 1748.46 527.422C1735.05 503.116 1728.35 474.411 1728.35 441.306C1728.35 416.582 1732.12 394.372 1739.66 374.676C1747.2 354.981 1758.1 338.219 1772.35 324.39C1787.01 310.142 1804.4 299.456 1824.52 292.332C1844.63 284.789 1867.05 281.018 1891.78 281.018C1924.88 281.018 1953.59 287.513 1977.89 300.504C2002.62 313.494 2021.68 331.933 2035.09 355.819C2048.92 379.705 2055.84 408.201 2055.84 441.306C2055.84 466.449 2051.86 488.869 2043.89 508.564C2036.35 528.26 2025.46 545.231 2011.21 559.479C1996.96 573.727 1979.57 584.623 1959.04 592.166C1938.92 599.289 1916.5 602.851 1891.78 602.851ZM1891.78 531.822C1905.61 531.822 1917.55 528.469 1927.61 521.764C1937.66 515.06 1945.63 505.212 1951.49 492.221C1957.36 478.811 1960.29 461.84 1960.29 441.306C1960.29 410.715 1954.01 388.296 1941.44 374.048C1928.86 359.381 1912.31 352.047 1891.78 352.047C1878.37 352.047 1866.42 355.19 1855.95 361.476C1845.89 367.762 1837.93 377.61 1832.06 391.019C1826.61 404.01 1823.89 420.772 1823.89 441.306C1823.89 471.897 1830.18 494.735 1842.75 509.821C1855.32 524.488 1871.66 531.822 1891.78 531.822ZM2261.93 602.851C2228.82 602.851 2199.91 596.356 2175.18 583.365C2150.88 570.375 2132.02 551.727 2118.61 527.422C2105.2 503.116 2098.5 474.411 2098.5 441.306C2098.5 416.582 2102.27 394.372 2109.81 374.676C2117.35 354.981 2128.25 338.219 2142.5 324.39C2157.16 310.142 2174.56 299.456 2194.67 292.332C2214.78 284.789 2237.2 281.018 2261.93 281.018C2295.03 281.018 2323.74 287.513 2348.04 300.504C2372.77 313.494 2391.84 331.933 2405.25 355.819C2419.07 379.705 2425.99 408.201 2425.99 441.306C2425.99 466.449 2422.01 488.869 2414.05 508.564C2406.5 528.26 2395.61 545.231 2381.36 559.479C2367.11 573.727 2349.72 584.623 2329.19 592.166C2309.07 599.289 2286.65 602.851 2261.93 602.851ZM2261.93 531.822C2275.76 531.822 2287.7 528.469 2297.76 521.764C2307.81 515.06 2315.78 505.212 2321.64 492.221C2327.51 478.811 2330.44 461.84 2330.44 441.306C2330.44 410.715 2324.16 388.296 2311.59 374.048C2299.01 359.381 2282.46 352.047 2261.93 352.047C2248.52 352.047 2236.58 355.19 2226.1 361.476C2216.04 367.762 2208.08 377.61 2202.21 391.019C2196.77 404.01 2194.04 420.772 2194.04 441.306C2194.04 471.897 2200.33 494.735 2212.9 509.821C2225.47 524.488 2241.81 531.822 2261.93 531.822ZM2594.99 602.851C2557.7 602.851 2529.83 592.585 2511.39 572.051C2492.95 551.098 2483.73 520.088 2483.73 479.021V195.531C2483.73 179.607 2487.72 167.663 2495.68 159.701C2504.06 151.32 2516 147.13 2531.51 147.13C2546.59 147.13 2558.12 151.32 2566.08 159.701C2574.46 167.663 2578.65 179.607 2578.65 195.531V475.249C2578.65 492.431 2582.21 505.212 2589.34 513.593C2596.88 521.555 2606.73 525.536 2618.88 525.536C2622.23 525.536 2625.37 525.326 2628.31 524.907C2631.24 524.488 2634.38 524.279 2637.74 524.279C2644.44 523.441 2649.05 525.536 2651.57 530.565C2654.5 535.174 2655.97 544.603 2655.97 558.851C2655.97 571.422 2653.45 581.061 2648.42 587.765C2643.39 594.051 2635.64 598.242 2625.17 600.337C2620.97 600.756 2616.16 601.175 2610.71 601.594C2605.26 602.432 2600.02 602.851 2594.99 602.851ZM2835.34 602.851C2806.42 602.851 2782.12 598.032 2762.42 588.394C2743.15 578.756 2728.69 564.717 2719.05 546.279C2709.83 527.841 2705.22 504.583 2705.22 476.507V358.333H2678.82C2667.09 358.333 2657.87 355.19 2651.16 348.904C2644.88 342.619 2641.73 334.028 2641.73 323.133C2641.73 311.399 2644.88 302.599 2651.16 296.732C2657.87 290.446 2667.09 287.303 2678.82 287.303H2705.22V239.531C2705.22 223.607 2709.41 211.664 2717.79 203.702C2726.17 195.321 2737.91 191.131 2752.99 191.131C2768.5 191.131 2780.23 195.321 2788.19 203.702C2796.16 211.664 2800.14 223.607 2800.14 239.531V287.303H2859.85C2871.59 287.303 2880.6 290.446 2886.88 296.732C2893.17 302.599 2896.31 311.399 2896.31 323.133C2896.31 334.028 2893.17 342.619 2886.88 348.904C2880.6 355.19 2871.59 358.333 2859.85 358.333H2800.14V472.735C2800.14 490.335 2804.12 503.536 2812.08 512.336C2820.46 521.136 2833.66 525.536 2851.68 525.536C2857.97 525.536 2863.83 524.907 2869.28 523.65C2874.73 522.393 2879.76 521.555 2884.37 521.136C2890.23 520.717 2895.05 522.603 2898.82 526.793C2902.6 530.565 2904.48 539.155 2904.48 552.565C2904.48 562.622 2902.8 571.422 2899.45 578.965C2896.1 586.508 2890.23 591.956 2881.85 595.308C2876.4 597.404 2868.86 599.08 2859.22 600.337C2850 602.013 2842.04 602.851 2835.34 602.851ZM2987.01 601.594C2971.09 601.594 2958.94 597.404 2950.55 589.023C2942.17 580.642 2937.98 568.698 2937.98 553.193V330.047C2937.98 314.542 2941.96 302.809 2949.93 294.846C2958.31 286.465 2969.83 282.275 2984.5 282.275C2999.58 282.275 3011.11 286.465 3019.07 294.846C3027.03 302.809 3031.01 314.542 3031.01 330.047V362.733H3024.73C3029.76 337.59 3040.86 318.104 3058.04 304.275C3075.22 290.446 3097.43 282.694 3124.67 281.018C3135.15 280.18 3143.11 282.903 3148.56 289.189C3154.42 295.056 3157.57 304.904 3157.99 318.733C3158.82 331.723 3156.1 341.99 3149.81 349.533C3143.95 357.076 3133.89 361.686 3119.64 363.362L3105.19 364.619C3081.3 366.714 3063.49 373.629 3051.76 385.362C3040.44 397.096 3034.78 414.067 3034.78 436.277V553.193C3034.78 568.698 3030.59 580.642 3022.21 589.023C3014.25 597.404 3002.52 601.594 2987.01 601.594ZM3298.3 602.851C3275.67 602.851 3255.35 598.451 3237.33 589.651C3219.31 580.851 3205.27 568.908 3195.21 553.822C3185.16 538.736 3180.13 521.764 3180.13 502.907C3180.13 480.278 3186 462.468 3197.73 449.478C3209.46 436.068 3228.53 426.639 3254.93 421.191C3281.33 415.325 3316.32 412.391 3359.9 412.391H3393.22V461.421H3360.53C3339.16 461.421 3321.77 462.678 3308.36 465.192C3295.37 467.287 3285.94 471.059 3280.07 476.507C3274.63 481.954 3271.9 489.497 3271.9 499.135C3271.9 510.869 3275.88 520.507 3283.84 528.05C3292.23 535.593 3304.17 539.365 3319.67 539.365C3331.83 539.365 3342.51 536.641 3351.73 531.193C3361.37 525.326 3368.91 517.574 3374.36 507.936C3379.81 497.878 3382.53 486.564 3382.53 473.992V401.705C3382.53 383.267 3378.34 370.276 3369.96 362.733C3361.58 354.771 3347.33 350.79 3327.22 350.79C3315.9 350.79 3303.54 352.257 3290.13 355.19C3277.14 357.705 3262.68 362.105 3246.76 368.391C3237.54 372.581 3229.37 373.629 3222.24 371.533C3215.12 369.019 3209.67 364.829 3205.9 358.962C3202.13 352.676 3200.24 345.971 3200.24 338.847C3200.24 331.304 3202.34 324.18 3206.53 317.475C3210.72 310.351 3217.63 305.113 3227.27 301.761C3246.97 293.799 3265.41 288.351 3282.59 285.418C3300.19 282.484 3316.32 281.018 3330.99 281.018C3363.26 281.018 3389.66 285.837 3410.19 295.475C3431.14 304.694 3446.86 319.152 3457.33 338.847C3467.81 358.124 3473.05 383.057 3473.05 413.648V553.193C3473.05 568.698 3469.28 580.642 3461.73 589.023C3454.19 597.404 3443.3 601.594 3429.05 601.594C3414.8 601.594 3403.69 597.404 3395.73 589.023C3388.19 580.642 3384.42 568.698 3384.42 553.193V529.936L3388.82 533.707C3386.3 547.955 3380.86 560.317 3372.47 570.794C3364.51 580.851 3354.25 588.813 3341.67 594.68C3329.1 600.128 3314.65 602.851 3298.3 602.851ZM3591.62 601.594C3576.12 601.594 3564.18 597.404 3555.79 589.023C3547.83 580.642 3543.85 568.698 3543.85 553.193V195.531C3543.85 179.607 3547.83 167.663 3555.79 159.701C3564.18 151.32 3576.12 147.13 3591.62 147.13C3606.71 147.13 3618.23 151.32 3626.2 159.701C3634.58 167.663 3638.77 179.607 3638.77 195.531V414.906H3640.02L3731.17 313.704C3740.39 303.228 3748.77 295.475 3756.31 290.446C3764.27 284.999 3774.75 282.275 3787.74 282.275C3800.73 282.275 3810.58 285.627 3817.28 292.332C3824.41 299.037 3827.97 307.209 3827.97 316.847C3828.39 326.066 3824.41 335.495 3816.03 345.133L3719.85 452.62V416.791L3826.71 539.993C3834.68 549.632 3838.03 559.27 3836.77 568.908C3835.93 578.546 3831.74 586.508 3824.2 592.794C3816.66 598.661 3807.02 601.594 3795.28 601.594C3781.04 601.594 3769.51 598.87 3760.71 593.423C3752.33 587.975 3743.74 579.594 3734.94 568.279L3640.02 462.678H3638.77V553.193C3638.77 585.461 3623.05 601.594 3591.62 601.594Z" fill="url(#paint0_linear_426_50)"/>
<defs>
<linearGradient id="paint0_linear_426_50" x1="3910.58" y1="103.937" x2="1038.57" y2="673.522" gradientUnits="userSpaceOnUse">
<stop stop-color="#FB5D96"/>
<stop offset="1" stop-color="#5782F0"/>
</linearGradient>
</defs>
</svg>
