<svg width="646" height="643" viewBox="0 0 646 643" fill="none" xmlns="http://www.w3.org/2000/svg">
<ellipse cx="323" cy="321.5" rx="323" ry="321.5" fill="url(#paint0_linear_3018_1348)"/>
<g clip-path="url(#clip0_3018_1348)">
<path d="M62.1952 335.573L161.67 512.091C167.163 521.84 174.619 528.131 178.322 526.142L493.447 356.881L543.538 202.694C544.938 198.384 538.77 187.439 534.293 186.289L374.077 145.059L58.9525 314.32C55.2498 316.309 56.7017 325.825 62.1952 335.573Z" fill="#E6BE94"/>
<path d="M346.872 298.269L541.311 193.832L540.634 192.631C538.755 189.527 536.366 186.818 534.291 186.285L374.077 145.058L286.915 191.875L346.872 298.269Z" fill="#FFD788"/>
<path d="M62.1952 335.573L161.67 512.091C167.163 521.84 174.619 528.131 178.322 526.142L493.447 356.881C486.04 360.859 471.129 348.276 460.142 328.78C449.155 309.284 446.251 290.252 453.657 286.274C446.251 290.252 431.339 277.669 420.352 258.173C409.365 238.676 406.461 219.645 413.867 215.667C406.461 219.645 391.55 207.062 380.563 187.565C369.576 168.069 366.671 149.037 374.077 145.059L58.9525 314.32C55.2498 316.309 56.7017 325.825 62.1952 335.573Z" fill="#FFCD00"/>
<path d="M453.657 286.273C446.251 290.251 431.339 277.669 420.352 258.172C410.29 240.317 407.112 222.999 412.317 217.128L92.3098 389.011L132.1 459.619L452.107 287.735C452.587 287.196 453.032 286.609 453.657 286.273Z" fill="#38B2AC"/>
<path d="M493.447 356.88C486.04 360.858 471.129 348.276 460.142 328.779C450.08 310.924 446.902 293.606 452.107 287.735L132.1 459.618L161.942 512.574C167.436 522.322 174.892 528.613 178.594 526.624L491.897 358.342C492.377 357.803 492.822 357.216 493.447 356.88Z" fill="#4299E1"/>
<path d="M374.352 145.546C366.946 149.524 369.911 168.664 380.974 188.294C391.105 206.272 404.443 218.263 412.318 217.13L92.3111 389.013L62.264 335.694C56.7328 325.879 55.2503 316.309 58.953 314.32L372.256 146.038C372.98 145.933 373.727 145.881 374.352 145.546Z" fill="#48BB78"/>
<path d="M522.192 268.397L543.536 202.691C544.936 198.38 538.769 187.436 534.29 186.283L466.018 168.718L522.192 268.397Z" fill="#5C546A"/>
<path d="M541.337 193.817C539.394 190.193 536.641 186.888 534.291 186.285L466.018 168.717L494.378 219.042L541.337 193.817Z" fill="#868491"/>
</g>
<defs>
<linearGradient id="paint0_linear_3018_1348" x1="64.5" y1="621" x2="552.5" y2="48" gradientUnits="userSpaceOnUse">
<stop stop-color="#F687B3"/>
<stop offset="1" stop-color="#5EA3F5"/>
</linearGradient>
<clipPath id="clip0_3018_1348">
<rect width="555" height="539" fill="white" transform="translate(46 52)"/>
</clipPath>
</defs>
</svg>
