<svg width="3734" height="688" viewBox="0 0 3734 688" fill="none" xmlns="http://www.w3.org/2000/svg">
<path d="M538.499 450.879C531.967 440.035 532.112 426.418 538.875 415.677L665.399 214.739C671.614 204.868 682.494 198.911 694.144 199.002L812.091 199.919C838.903 200.128 854.571 230.138 839.451 252.324L727.821 416.119C720.175 427.339 720.018 442.038 727.424 453.375L835.541 618.879C850.185 641.296 833.88 671.058 807.068 670.85L689.121 669.933C677.472 669.842 666.72 663.717 660.716 653.751L538.499 450.879Z" fill="white"/>
<path d="M283.901 687.767C244.522 687.767 203.8 684.187 161.736 677.027C120.567 669.868 82.9776 657.785 48.9682 640.781C31.0686 631.831 18.0913 620.644 10.0365 607.219C2.87661 592.899 -0.255828 578.579 0.639153 564.26C1.53414 549.94 6.00905 536.963 14.0639 525.328C23.0137 513.693 34.201 506.086 47.6258 502.506C61.9455 498.031 77.6077 499.373 94.6124 506.533C131.307 521.748 164.869 532.488 195.298 538.753C225.727 545.018 255.709 548.15 285.244 548.15C323.728 548.15 351.472 542.333 368.477 530.698C386.377 518.168 395.327 502.058 395.327 482.369C395.327 464.469 389.509 451.044 377.874 442.094C366.24 433.145 349.235 426.88 326.86 423.3L185.901 397.793C130.412 387.948 87.4525 367.811 57.0231 337.382C27.4886 306.057 12.7214 266.23 12.7214 217.901C12.7214 173.152 25.2512 134.668 50.3107 102.449C75.3702 69.3341 109.827 44.2746 153.681 27.2699C198.43 9.37024 248.997 0.42041 305.381 0.42041C345.655 0.42041 382.797 4.00035 416.806 11.1602C450.816 18.3201 483.482 29.9549 514.807 46.0646C530.917 54.1194 542.104 64.8592 548.369 78.284C555.529 91.7087 557.766 105.581 555.081 119.901C553.291 134.22 547.921 147.198 538.971 158.832C530.022 170.467 518.387 178.075 504.067 181.654C490.642 185.234 474.98 183.444 457.08 176.285C428.441 162.86 402.039 153.462 377.874 148.093C353.71 141.828 330.44 138.695 308.066 138.695C267.792 138.695 238.705 145.408 220.805 158.832C202.905 171.362 193.955 187.472 193.955 207.161C193.955 222.376 198.878 235.353 208.723 246.093C219.462 255.938 235.572 262.65 257.052 266.23L398.012 291.737C456.185 301.582 500.487 321.272 530.917 350.806C561.346 379.446 576.561 418.825 576.561 468.944C576.561 536.963 549.711 590.662 496.012 630.041C443.208 668.525 372.505 687.767 283.901 687.767Z" fill="white"/>
<path d="M1102.63 582.346C1084.19 582.346 1065.12 580.67 1045.43 577.317C1026.15 573.965 1008.55 568.308 992.627 560.346C984.246 556.155 978.17 550.917 974.398 544.631C971.046 537.926 969.579 531.221 969.998 524.517C970.417 517.812 972.512 511.735 976.284 506.288C980.474 500.84 985.713 497.278 991.998 495.602C998.703 493.507 1006.04 494.135 1014 497.488C1031.18 504.612 1046.89 509.64 1061.14 512.574C1075.39 515.507 1089.43 516.974 1103.26 516.974C1121.28 516.974 1134.27 514.25 1142.23 508.802C1150.61 502.935 1154.8 495.392 1154.8 486.173C1154.8 477.792 1152.08 471.506 1146.63 467.316C1141.18 463.125 1133.22 460.192 1122.74 458.516L1056.74 446.573C1030.76 441.963 1010.65 432.534 996.398 418.286C982.57 403.619 975.655 384.972 975.655 362.343C975.655 341.39 981.522 323.371 993.256 308.285C1004.99 292.78 1021.12 281.046 1041.66 273.084C1062.61 264.703 1086.29 260.512 1112.69 260.512C1131.54 260.512 1148.93 262.189 1164.86 265.541C1180.78 268.893 1196.08 274.341 1210.74 281.884C1218.29 285.656 1223.53 290.684 1226.46 296.97C1229.81 303.256 1230.86 309.751 1229.6 316.456C1228.76 323.161 1226.25 329.237 1222.06 334.685C1217.87 340.133 1212.42 343.695 1205.72 345.371C1199.43 347.047 1192.1 346.209 1183.72 342.857C1170.31 336.571 1157.94 332.171 1146.63 329.656C1135.31 326.723 1124.42 325.256 1113.94 325.256C1095.09 325.256 1081.47 328.399 1073.09 334.685C1064.7 340.552 1060.51 348.095 1060.51 357.314C1060.51 364.438 1062.82 370.514 1067.43 375.543C1072.46 380.152 1080 383.295 1090.06 384.972L1156.06 396.915C1183.3 401.524 1204.04 410.743 1218.29 424.572C1232.54 437.982 1239.66 456.42 1239.66 479.887C1239.66 511.735 1227.09 536.879 1201.94 555.317C1177.22 573.336 1144.12 582.346 1102.63 582.346Z" fill="white"/>
<path d="M1341.61 581.089C1326.1 581.089 1314.16 576.898 1305.78 568.517C1297.82 560.136 1293.84 548.193 1293.84 532.688V175.025C1293.84 159.101 1297.82 147.158 1305.78 139.196C1314.16 130.815 1326.1 126.625 1341.61 126.625C1356.69 126.625 1368.22 130.815 1376.18 139.196C1384.56 147.158 1388.75 159.101 1388.75 175.025V394.4H1390.01L1481.15 293.199C1490.37 282.722 1498.75 274.97 1506.3 269.941C1514.26 264.493 1524.73 261.77 1537.72 261.77C1550.72 261.77 1560.56 265.122 1567.27 271.827C1574.39 278.532 1577.95 286.703 1577.95 296.342C1578.37 305.561 1574.39 314.989 1566.01 324.628L1469.84 432.115V396.286L1576.7 519.488C1584.66 529.126 1588.01 538.764 1586.75 548.403C1585.92 558.041 1581.73 566.003 1574.18 572.289C1566.64 578.156 1557 581.089 1545.27 581.089C1531.02 581.089 1519.5 578.365 1510.7 572.917C1502.31 567.47 1493.72 559.089 1484.92 547.774L1390.01 442.172H1388.75V532.688C1388.75 564.955 1373.04 581.089 1341.61 581.089Z" fill="white"/>
<path d="M1787.78 582.346C1754.67 582.346 1725.76 575.851 1701.03 562.86C1676.73 549.869 1657.87 531.221 1644.46 506.916C1631.05 482.611 1624.35 453.906 1624.35 420.801C1624.35 396.076 1628.12 373.867 1635.66 354.171C1643.2 334.475 1654.1 317.713 1668.35 303.884C1683.01 289.637 1700.4 278.951 1720.52 271.827C1740.63 264.284 1763.05 260.512 1787.78 260.512C1820.88 260.512 1849.59 267.008 1873.89 279.998C1898.62 292.989 1917.68 311.427 1931.09 335.314C1944.92 359.2 1951.84 387.695 1951.84 420.801C1951.84 445.944 1947.86 468.363 1939.89 488.059C1932.35 507.754 1921.46 524.726 1907.21 538.974C1892.96 553.222 1875.57 564.117 1855.04 571.66C1834.92 578.784 1812.5 582.346 1787.78 582.346ZM1787.78 511.316C1801.61 511.316 1813.55 507.964 1823.61 501.259C1833.66 494.554 1841.63 484.706 1847.49 471.716C1853.36 458.306 1856.29 441.334 1856.29 420.801C1856.29 390.21 1850.01 367.79 1837.44 353.542C1824.86 338.876 1808.31 331.542 1787.78 331.542C1774.37 331.542 1762.42 334.685 1751.95 340.971C1741.89 347.257 1733.93 357.104 1728.06 370.514C1722.61 383.505 1719.89 400.267 1719.89 420.801C1719.89 451.392 1726.18 474.23 1738.75 489.316C1751.32 503.983 1767.66 511.316 1787.78 511.316Z" fill="white"/>
<path d="M2157.93 582.346C2124.82 582.346 2095.91 575.851 2071.18 562.86C2046.88 549.869 2028.02 531.221 2014.61 506.916C2001.2 482.611 1994.5 453.906 1994.5 420.801C1994.5 396.076 1998.27 373.867 2005.81 354.171C2013.35 334.475 2024.25 317.713 2038.5 303.884C2053.16 289.637 2070.56 278.951 2090.67 271.827C2110.79 264.284 2133.2 260.512 2157.93 260.512C2191.03 260.512 2219.74 267.008 2244.04 279.998C2268.77 292.989 2287.84 311.427 2301.25 335.314C2315.07 359.2 2321.99 387.695 2321.99 420.801C2321.99 445.944 2318.01 468.363 2310.05 488.059C2302.5 507.754 2291.61 524.726 2277.36 538.974C2263.11 553.222 2245.72 564.117 2225.19 571.66C2205.07 578.784 2182.65 582.346 2157.93 582.346ZM2157.93 511.316C2171.76 511.316 2183.7 507.964 2193.76 501.259C2203.82 494.554 2211.78 484.706 2217.64 471.716C2223.51 458.306 2226.44 441.334 2226.44 420.801C2226.44 390.21 2220.16 367.79 2207.59 353.542C2195.01 338.876 2178.46 331.542 2157.93 331.542C2144.52 331.542 2132.58 334.685 2122.1 340.971C2112.04 347.257 2104.08 357.104 2098.21 370.514C2092.77 383.505 2090.04 400.267 2090.04 420.801C2090.04 451.392 2096.33 474.23 2108.9 489.316C2121.47 503.983 2137.81 511.316 2157.93 511.316Z" fill="white"/>
<path d="M2490.99 582.346C2453.7 582.346 2425.83 572.079 2407.39 551.546C2388.95 530.593 2379.73 499.583 2379.73 458.516V175.025C2379.73 159.101 2383.72 147.158 2391.68 139.196C2400.06 130.815 2412 126.625 2427.51 126.625C2442.59 126.625 2454.12 130.815 2462.08 139.196C2470.46 147.158 2474.65 159.101 2474.65 175.025V454.744C2474.65 471.925 2478.21 484.706 2485.34 493.088C2492.88 501.05 2502.73 505.031 2514.88 505.031C2518.23 505.031 2521.37 504.821 2524.31 504.402C2527.24 503.983 2530.38 503.773 2533.74 503.773C2540.44 502.935 2545.05 505.031 2547.57 510.059C2550.5 514.669 2551.97 524.098 2551.97 538.345C2551.97 550.917 2549.45 560.555 2544.42 567.26C2539.39 573.546 2531.64 577.737 2521.17 579.832C2516.97 580.251 2512.16 580.67 2506.71 581.089C2501.26 581.927 2496.02 582.346 2490.99 582.346Z" fill="white"/>
<path d="M2731.34 582.346C2702.42 582.346 2678.12 577.527 2658.42 567.889C2639.15 558.25 2624.69 544.212 2615.05 525.774C2605.83 507.335 2601.22 484.078 2601.22 456.001V337.828H2574.82C2563.09 337.828 2553.87 334.685 2547.16 328.399C2540.88 322.113 2537.73 313.523 2537.73 302.627C2537.73 290.894 2540.88 282.094 2547.16 276.227C2553.87 269.941 2563.09 266.798 2574.82 266.798H2601.22V219.026C2601.22 203.102 2605.41 191.159 2613.79 183.197C2622.17 174.816 2633.91 170.625 2648.99 170.625C2664.5 170.625 2676.23 174.816 2684.19 183.197C2692.16 191.159 2696.14 203.102 2696.14 219.026V266.798H2755.85C2767.59 266.798 2776.6 269.941 2782.88 276.227C2789.17 282.094 2792.31 290.894 2792.31 302.627C2792.31 313.523 2789.17 322.113 2782.88 328.399C2776.6 334.685 2767.59 337.828 2755.85 337.828H2696.14V452.23C2696.14 469.83 2700.12 483.03 2708.08 491.83C2716.46 500.631 2729.66 505.031 2747.68 505.031C2753.97 505.031 2759.83 504.402 2765.28 503.145C2770.73 501.888 2775.76 501.05 2780.37 500.631C2786.23 500.211 2791.05 502.097 2794.82 506.288C2798.6 510.059 2800.48 518.65 2800.48 532.06C2800.48 542.117 2798.81 550.917 2795.45 558.46C2792.1 566.003 2786.23 571.451 2777.85 574.803C2772.4 576.898 2764.86 578.575 2755.22 579.832C2746 581.508 2738.04 582.346 2731.34 582.346Z" fill="white"/>
<path d="M2883.01 581.089C2867.09 581.089 2854.94 576.898 2846.55 568.517C2838.17 560.136 2833.98 548.193 2833.98 532.688V309.542C2833.98 294.037 2837.96 282.303 2845.93 274.341C2854.31 265.96 2865.83 261.77 2880.5 261.77C2895.58 261.77 2907.11 265.96 2915.07 274.341C2923.03 282.303 2927.01 294.037 2927.01 309.542V342.228H2920.73C2925.76 317.085 2936.86 297.599 2954.04 283.77C2971.22 269.941 2993.43 262.189 3020.67 260.512C3031.15 259.674 3039.11 262.398 3044.56 268.684C3050.42 274.551 3053.57 284.398 3053.99 298.227C3054.82 311.218 3052.1 321.485 3045.81 329.028C3039.95 336.571 3029.89 341.18 3015.64 342.857L3001.19 344.114C2977.3 346.209 2959.49 353.123 2947.76 364.857C2936.44 376.59 2930.78 393.562 2930.78 415.772V532.688C2930.78 548.193 2926.59 560.136 2918.21 568.517C2910.25 576.898 2898.52 581.089 2883.01 581.089Z" fill="white"/>
<path d="M3194.3 582.346C3171.67 582.346 3151.35 577.946 3133.33 569.146C3115.31 560.346 3101.27 548.403 3091.22 533.317C3081.16 518.231 3076.13 501.259 3076.13 482.402C3076.13 459.773 3082 441.963 3093.73 428.972C3105.46 415.562 3124.53 406.134 3150.93 400.686C3177.33 394.819 3212.32 391.886 3255.9 391.886H3289.22V440.915H3256.53C3235.16 440.915 3217.77 442.172 3204.36 444.687C3191.37 446.782 3181.94 450.554 3176.07 456.001C3170.63 461.449 3167.9 468.992 3167.9 478.63C3167.9 490.364 3171.88 500.002 3179.84 507.545C3188.23 515.088 3200.17 518.859 3215.67 518.859C3227.83 518.859 3238.51 516.136 3247.73 510.688C3257.37 504.821 3264.91 497.069 3270.36 487.43C3275.81 477.373 3278.53 466.059 3278.53 453.487V381.2C3278.53 362.762 3274.34 349.771 3265.96 342.228C3257.58 334.266 3243.33 330.285 3223.22 330.285C3211.9 330.285 3199.54 331.752 3186.13 334.685C3173.14 337.199 3158.68 341.599 3142.76 347.885C3133.54 352.076 3125.37 353.123 3118.24 351.028C3111.12 348.514 3105.67 344.323 3101.9 338.456C3098.13 332.171 3096.24 325.466 3096.24 318.342C3096.24 310.799 3098.34 303.675 3102.53 296.97C3106.72 289.846 3113.63 284.608 3123.27 281.256C3142.97 273.294 3161.41 267.846 3178.59 264.912C3196.19 261.979 3212.32 260.512 3226.99 260.512C3259.26 260.512 3285.66 265.331 3306.19 274.97C3327.14 284.189 3342.86 298.646 3353.33 318.342C3363.81 337.618 3369.05 362.552 3369.05 393.143V532.688C3369.05 548.193 3365.28 560.136 3357.73 568.517C3350.19 576.898 3339.3 581.089 3325.05 581.089C3310.8 581.089 3299.69 576.898 3291.73 568.517C3284.19 560.136 3280.42 548.193 3280.42 532.688V509.431L3284.82 513.202C3282.3 527.45 3276.86 539.812 3268.48 550.288C3260.51 560.346 3250.25 568.308 3237.67 574.175C3225.1 579.622 3210.65 582.346 3194.3 582.346Z" fill="white"/>
<path d="M3487.62 581.089C3472.12 581.089 3460.18 576.898 3451.79 568.517C3443.83 560.136 3439.85 548.193 3439.85 532.688V175.025C3439.85 159.101 3443.83 147.158 3451.79 139.196C3460.18 130.815 3472.12 126.625 3487.62 126.625C3502.71 126.625 3514.23 130.815 3522.2 139.196C3530.58 147.158 3534.77 159.101 3534.77 175.025V394.4H3536.02L3627.17 293.199C3636.39 282.722 3644.77 274.97 3652.31 269.941C3660.27 264.493 3670.75 261.77 3683.74 261.77C3696.73 261.77 3706.58 265.122 3713.28 271.827C3720.41 278.532 3723.97 286.703 3723.97 296.342C3724.39 305.561 3720.41 314.989 3712.03 324.628L3615.85 432.115V396.286L3722.71 519.488C3730.68 529.126 3734.03 538.764 3732.77 548.403C3731.93 558.041 3727.74 566.003 3720.2 572.289C3712.66 578.156 3703.02 581.089 3691.28 581.089C3677.04 581.089 3665.51 578.365 3656.71 572.917C3648.33 567.47 3639.74 559.089 3630.94 547.774L3536.02 442.172H3534.77V532.688C3534.77 564.955 3519.05 581.089 3487.62 581.089Z" fill="white"/>
</svg>
