<svg width="400" height="300" viewBox="0 0 400 300" fill="none" xmlns="http://www.w3.org/2000/svg">
<path d="M196.24 288.6L23.74 186.65C18.25 183.57 13.54 178.5 18.89 175.19L192 75.41C194.6 73.8 198.54 72.75 201.18 74.28L382.28 179.37C387.77 182.56 388.76 191.47 383.28 194.66L219 288.44C215.548 290.445 211.633 291.514 207.641 291.542C203.65 291.57 199.72 290.556 196.24 288.6Z" fill="#F9D8A3"/>
<path style="mix-blend-mode:multiply" d="M224 248.87L187.06 268.61C187.06 268.61 203.41 277.76 211.13 281L245 258.38" fill="url(#paint0_linear_1_2)"/>
<path d="M307.81 92.67L169.92 14.67V102.6C169.919 103.765 170.228 104.91 170.815 105.917C171.402 106.923 172.246 107.756 173.26 108.33L298 178.88C299.001 179.446 300.134 179.741 301.284 179.733C302.434 179.725 303.563 179.416 304.556 178.836C305.55 178.256 306.374 177.426 306.947 176.429C307.519 175.431 307.821 174.3 307.82 173.15L307.81 92.67Z" fill="#68C7FD"/>
<path d="M300.23 178.85L212.52 129.21C199.95 122.1 186.52 115.67 174.46 107.67C170.46 105.01 171.05 101.45 171.05 97.29V14.64L169.36 15.64L258 65.79L302.79 91.14C304.1 91.88 305.4 92.69 306.79 93.38C307.64 93.82 306.85 93.64 306.69 92.73C306.76 93.3179 306.76 93.9121 306.69 94.5C306 102.29 306.69 110.5 306.69 118.28V170.37C306.69 174.02 307.34 181.92 300.24 178.85C298.92 178.28 297.78 180.22 299.1 180.79C304.81 183.25 308.81 179.25 308.94 173.69C309.07 168.13 308.94 162.57 308.94 157.02V92.67C308.944 92.4685 308.895 92.2695 308.796 92.0937C308.698 91.9179 308.554 91.7716 308.38 91.67L187.38 23.19L170.51 13.64C170.336 13.5443 170.141 13.4956 169.942 13.4987C169.744 13.5017 169.55 13.5564 169.379 13.6574C169.209 13.7584 169.067 13.9021 168.969 14.0745C168.871 14.2468 168.82 14.4417 168.82 14.64V93.43C168.82 98.09 167.46 105.23 171.57 108.51C174.22 110.63 177.67 112.07 180.57 113.74L202.73 126.28L261.43 159.5L299.08 180.8C299.208 180.875 299.35 180.925 299.497 180.946C299.644 180.967 299.794 180.958 299.938 180.921C300.082 180.884 300.217 180.819 300.336 180.729C300.455 180.64 300.554 180.528 300.63 180.4C300.706 180.272 300.755 180.13 300.776 179.983C300.797 179.836 300.788 179.686 300.751 179.542C300.714 179.398 300.649 179.263 300.559 179.144C300.47 179.025 300.358 178.926 300.23 178.85Z" fill="#603813"/>
<path d="M167.94 98.43C166.3 98.36 160.08 101.22 160.08 101.22V108.63L302.78 188.86C302.78 188.86 309.23 185.45 309.23 184.33C309.23 183.21 308.23 176.11 308.23 176.11L167.94 98.43Z" fill="#E09A34"/>
<path style="mix-blend-mode:multiply" d="M103.38 154.09L70.08 170.26C74.9764 173.552 80.1491 176.412 85.54 178.81L119.47 156.19" fill="url(#paint1_linear_1_2)"/>
<path d="M124.18 97.69C123.681 97.6005 123.168 97.6418 122.69 97.81C121.42 100.1 120.12 102.38 118.89 104.69L116.58 110.31C116.01 111.7 115.42 113.08 114.89 114.48C113.95 117.78 113.3 121.16 112.62 124.48C113.02 124.976 113.572 125.327 114.19 125.48C115.48 123.75 117.36 122.85 119.19 121.56C121.704 119.608 123.702 117.071 125.01 114.17C125.557 113.07 126.012 111.926 126.37 110.75C126.57 109.53 126.74 108.31 126.87 107.07C125.767 104.006 124.869 100.873 124.18 97.69Z" fill="#1B896C"/>
<path d="M100.21 123.31C100.124 123.228 100.056 123.129 100.01 123.02C98.58 122.31 97.14 121.62 95.67 121.02C95.22 120.68 94.76 120.37 94.29 120.02C94.211 120.108 94.1135 120.176 94.0044 120.221C93.8954 120.266 93.7777 120.286 93.66 120.28C91.527 120.224 89.4026 119.987 87.31 119.57C87.215 119.747 87.1411 119.935 87.09 120.13C88.9858 122.335 90.2656 125.002 90.8 127.86C91.2 128.32 91.64 128.86 92.11 129.31C94.21 130.14 97.11 129.96 99.48 130.31C99.5949 130.066 99.6854 129.812 99.75 129.55H99.85C100.656 129.846 101.442 130.197 102.2 130.6C103.778 130.825 105.274 131.444 106.55 132.4C106.901 132.265 107.223 132.064 107.5 131.81C105 129 102.88 125.95 100.21 123.31Z" fill="#1B896C"/>
<path d="M99.92 141.86L102.92 155.96C103.02 156.428 103.225 156.867 103.52 157.245C103.814 157.623 104.19 157.929 104.62 158.14C106.38 159 110 159.9 116.9 158.65C117.521 158.538 118.094 158.244 118.548 157.807C119.002 157.369 119.316 156.806 119.45 156.19L122.55 141.85" fill="#68C7FD"/>
<path d="M111.24 146.5C117.492 146.5 122.56 144.423 122.56 141.86C122.56 139.297 117.492 137.22 111.24 137.22C104.988 137.22 99.92 139.297 99.92 141.86C99.92 144.423 104.988 146.5 111.24 146.5Z" fill="#56403D"/>
<path d="M126.82 106.95C126.55 103.54 124.31 100.49 124.65 97.05C124.71 96.41 123.84 96.31 123.54 96.75C117.669 105.386 113.864 115.257 112.42 125.6C112.35 125.728 112.329 125.877 112.36 126.02C111.744 130.633 111.603 135.298 111.94 139.94C112.337 139.904 112.732 139.84 113.12 139.75C112.802 135.194 112.949 130.616 113.56 126.09C115.56 123.7 118.42 122.57 120.85 120.67C122.897 119.061 124.506 116.964 125.53 114.57C126.571 112.172 127.013 109.557 126.82 106.95ZM124.41 114.09C123.139 116.949 121.011 119.343 118.32 120.94C117.19 121.65 116.08 122.32 115.04 123.08C117.192 118.853 119.05 114.483 120.6 110C120.85 109.27 119.7 109 119.45 109.68C117.981 113.898 116.234 118.013 114.22 122C115.858 113.822 119.009 106.022 123.51 99C123.8 100.94 124.72 102.68 125.23 104.66C126.005 107.808 125.716 111.123 124.41 114.09Z" fill="#37B596"/>
<path d="M111.34 140C110.44 137.56 109.5 135.1 108.34 132.74C108.355 132.63 108.34 132.517 108.296 132.415C108.252 132.313 108.181 132.225 108.09 132.16C106.7 129.257 104.815 126.617 102.52 124.36C98 120 92.07 119 86.11 118.29C85.51 118.22 85.39 118.95 85.74 119.29C85.7577 119.363 85.7899 119.431 85.8346 119.491C85.8792 119.551 85.9355 119.602 86 119.64C89.55 121.84 88.51 127.45 92.27 129.52C94.03 130.52 96.18 130.2 98.11 130.28C100.668 130.322 103.187 130.908 105.5 132C107.523 134.23 108.929 136.95 109.58 139.89C110.162 139.978 110.751 140.015 111.34 140ZM95 123.69C94.28 123.43 94 124.58 94.68 124.84C97.8497 125.973 100.79 127.666 103.36 129.84C102.739 129.662 102.108 129.518 101.47 129.41C98.96 129 95.13 129.79 92.91 128.5C89.82 126.71 90.11 122.32 87.91 119.71C93.28 120.43 98.39 121.71 102.35 125.79C103.781 127.299 105.02 128.978 106.04 130.79C102.969 127.588 99.1869 125.156 95 123.69Z" fill="#37B596"/>
<path d="M224.15 245.44C223.372 246.139 222.778 247.018 222.42 248C222.1 249.29 219.33 256.27 220.77 256.29C222.21 256.31 229.65 253.54 229.92 252.29C230.19 251.04 232.38 242.99 232.38 242.99C232.38 242.99 232.38 247.11 232.9 246.99C233.42 246.87 232.9 236.15 232.9 236.15" fill="#16242D"/>
<path d="M243.16 244.26C243.16 245.98 243.96 257.63 243.16 258.12C242.36 258.61 241.28 252.46 241.28 252.46" fill="#16242D"/>
<path d="M238 246.59C238 246.59 233.54 255.25 232.87 258.47C232.09 262.21 231.02 267.58 232.87 266.47C234.72 265.36 240.03 261.58 241.08 259.79C243.13 256.32 243.13 246.01 243.13 246.01" fill="#16242D"/>
<path d="M232.9 200.41C233.11 201.23 234.75 208 235.36 212.93C235.97 217.86 238.64 243.31 238.03 246.6C237.42 249.89 233.51 255.84 234.13 257.48C234.337 257.983 234.644 258.438 235.032 258.818C235.421 259.198 235.883 259.494 236.39 259.69C236.39 259.69 239.67 260.36 241.11 257.69C242.55 255.02 243.16 247.02 243.16 245.99C243.16 244.96 247.68 223.61 246.44 218.07C245.2 212.53 244.59 196.5 244.59 196.5L232.9 200.41Z" fill="#F4B389"/>
<path d="M236.59 207.18C235.36 201.64 234.74 185.61 234.74 185.61L229.79 187.27C229.79 187.27 229.79 187.33 229.79 187.37C230.126 187.495 230.434 187.686 230.694 187.932C230.955 188.178 231.164 188.475 231.307 188.803C231.451 189.132 231.527 189.486 231.531 189.844C231.535 190.203 231.467 190.558 231.33 190.89C230.07 194.48 227.6 197.22 225.83 200.52C225.697 200.768 225.536 200.999 225.35 201.21C225.35 201.49 225.43 201.77 225.46 202.04C226.08 206.97 228.74 232.42 228.13 235.71C227.52 239 223.61 244.95 224.23 246.59C224.437 247.093 224.744 247.548 225.132 247.928C225.521 248.308 225.983 248.604 226.49 248.8C226.49 248.8 229.77 249.47 231.21 246.8C232.65 244.13 233.26 236.13 233.26 235.1C233.26 234.07 237.82 212.72 236.59 207.18Z" fill="#F4B389"/>
<path d="M224 147.73L225.24 202C225.24 202 227.9 211.59 245.7 207.63C246.45 201.322 246.881 194.981 246.99 188.63C246.99 180.22 254.56 169.9 246.25 155.74C237.36 140.66 224 147.73 224 147.73Z" fill="#5E331F"/>
<path d="M194.41 109.81C193 109.87 193.52 111.29 193.52 111.29C193.52 111.29 190.77 109.18 188.66 109.84C187.55 111.46 187.8 115.49 189.01 117.84C192.745 119.877 196.907 121.007 201.16 121.14L201.67 117.14C201.67 117.14 195.82 109.75 194.41 109.81Z" fill="#F4B389"/>
<path d="M193.52 111.28C193.52 111.28 194.42 117.89 192.84 118.41L191.73 119.13C191.73 119.13 193.29 119.8 193.73 119.05C194.17 118.3 195.5 114 193.52 111.28Z" fill="#42210B"/>
<path d="M233.73 158.85C238.46 160.16 243.73 161.24 248.12 158.41C255.4 124.61 250.06 114.13 237.49 110.13C232.49 108.55 227.35 111.46 224.91 115.95C223.52 128.95 224.28 142.36 224.21 155.4C224.21 156.06 226.48 156.4 227.05 156.63C228.747 157.34 230.487 157.941 232.26 158.43L233.73 158.85Z" fill="#FFA197"/>
<path d="M226.16 114.38C226.16 114.38 218.16 125.72 201.87 114.58C201.87 114.58 196.27 121.38 197.18 122.42C198.09 123.46 215.58 136.85 223.9 129.59" fill="#FFA197"/>
<path d="M223.2 121.85C222.73 121.63 223.98 147.73 223.98 147.73L238.64 153.6L238 137.27L237.11 127.54C237.11 127.54 223.67 122.06 223.2 121.85Z" fill="#68E1FD"/>
<path d="M238.47 140.9C238.32 140.82 238.38 140.17 238.4 139.32C237.236 138.683 235.987 138.219 234.69 137.94C232.51 137.76 229.05 137.55 228.14 137.94C226.79 138.53 227.38 140.47 227.38 140.47C227.38 140.47 225.27 140.53 225.61 141.98C225.686 142.375 225.879 142.738 226.164 143.022C226.45 143.306 226.814 143.497 227.21 143.57C227.21 143.57 225.61 144.78 226.53 145.8L227.46 146.8C227.522 147.567 227.811 148.298 228.29 148.9C229.05 149.74 237.59 147.9 237.59 147.9L241.2 150.67L241.63 143.13C241.63 143.13 238.92 141.16 238.47 140.9Z" fill="#F4B389"/>
<path d="M234.47 140.32C232.074 140.47 229.669 140.426 227.28 140.19C227.03 140.19 227.03 140.55 227.28 140.58C229.669 140.816 232.074 140.86 234.47 140.71C234.71 140.69 234.72 140.3 234.47 140.32Z" fill="#42210B"/>
<path d="M234.81 142.88C232.211 143.459 229.553 143.731 226.89 143.69C226.838 143.69 226.789 143.711 226.752 143.747C226.716 143.784 226.695 143.833 226.695 143.885C226.695 143.937 226.716 143.986 226.752 144.023C226.789 144.059 226.838 144.08 226.89 144.08C229.58 144.116 232.265 143.838 234.89 143.25C235.15 143.2 235.05 142.82 234.81 142.88Z" fill="#42210B"/>
<path d="M234.42 145.57C232.126 146.162 229.783 146.547 227.42 146.72C227.368 146.72 227.319 146.741 227.282 146.777C227.246 146.814 227.225 146.863 227.225 146.915C227.225 146.967 227.246 147.016 227.282 147.053C227.319 147.089 227.368 147.11 227.42 147.11C229.824 146.935 232.207 146.544 234.54 145.94C234.77 145.89 234.66 145.52 234.42 145.57Z" fill="#42210B"/>
<path d="M230.13 110.83C230.13 110.83 226.75 115 229.02 117.75C231.29 120.5 234.13 117.75 234.13 117.75C234.13 117.75 234.06 120.12 237.07 120.02C240.08 119.92 243.2 114.82 243.2 114.82" fill="white"/>
<path d="M231.93 110.76C231.93 110.76 231.21 117.33 236.21 115.38C238.325 114.548 240.368 113.544 242.32 112.38V108.38" fill="#CC6C62"/>
<path d="M248.55 115.74C249.14 116.35 262.86 132.74 264.49 139.67C266.12 146.6 254.1 152.48 241.19 150.67L241.62 143.13L249.09 139.64L245.65 135.64" fill="#FFA197"/>
<path d="M228.77 96.88C228.77 96.88 226.35 109.99 231.85 112.11C237.35 114.23 242.41 104.32 242.42 101.27C242.41 94.94 236.13 95.48 228.77 96.88Z" fill="#F4B389"/>
<path d="M260.21 130.34C260.11 129.507 259.761 128.723 259.21 128.09C258.08 126.79 256.27 126.23 255.29 124.78C253.7 122.41 256.29 120.32 256.46 117.98C256.82 113.66 251.24 113.15 248.81 110.98C247.651 109.798 246.871 108.297 246.57 106.67C245.18 101.67 244.89 95.55 240.02 92.48C238.483 91.6276 236.757 91.1738 235 91.16C232.889 90.9122 230.755 91.3692 228.93 92.46C228.153 93.0013 227.505 93.7079 227.033 94.5292C226.561 95.3504 226.276 96.2659 226.2 97.21C226.11 98.57 226.54 100.73 228.2 100.93C229.29 101.06 229.84 100.22 230.52 99.55C231.2 98.88 231.75 97.83 232.52 97.1C233.02 96.5902 233.66 96.2419 234.36 96.1C237.13 95.67 234.63 100.64 234.58 101.71C234.537 102.286 234.704 102.858 235.05 103.32C235.499 103.799 236.086 104.128 236.73 104.26C238.06 104.63 240.36 105.26 239.55 107.2C239.1 108.2 238.06 109.06 237.5 110.07C236.85 111.06 236.523 112.227 236.562 113.41C236.602 114.593 237.006 115.735 237.72 116.68C238.489 117.581 239.369 118.381 240.34 119.06C240.868 119.412 241.318 119.869 241.662 120.402C242.006 120.935 242.237 121.534 242.34 122.16C242.34 122.24 242.34 122.31 242.34 122.39C242.08 124.39 241.23 126.99 241.34 129.24C241.29 130.058 241.493 130.871 241.92 131.57C242.338 132.384 242.908 133.111 243.6 133.71C245.053 134.954 246.798 135.807 248.672 136.188C250.546 136.569 252.487 136.467 254.31 135.89C256.13 135.35 258.23 134.65 259.48 133.12C259.78 132.728 259.999 132.281 260.124 131.803C260.25 131.326 260.279 130.829 260.21 130.34ZM255.8 118C255.826 117.717 255.826 117.433 255.8 117.15C255.77 116.937 255.724 116.726 255.66 116.52C255.826 116.995 255.874 117.503 255.8 118Z" fill="#5E331F"/>
<path d="M253.64 138.83C249.949 140.874 245.851 142.076 241.64 142.35C241.476 142.353 241.32 142.419 241.204 142.534C241.089 142.65 241.023 142.806 241.02 142.97L241.14 150.16C241.14 150.311 241.198 150.457 241.302 150.567C241.406 150.677 241.549 150.742 241.7 150.75L241.19 150.7L248.1 153.93L248.77 151.02C246.434 151.063 244.097 150.976 241.77 150.76C241.85 150.764 241.93 150.752 242.005 150.723C242.079 150.695 242.147 150.65 242.204 150.594C242.261 150.537 242.305 150.469 242.333 150.395C242.362 150.32 242.374 150.24 242.37 150.16L242.26 143.53C246.47 143.174 250.559 141.938 254.26 139.9C255 139.52 254.34 138.44 253.64 138.83Z" fill="#CC6C62"/>
<path d="M192.33 110.68L185.12 68.68C185.092 68.5169 185.001 68.3715 184.866 68.2759C184.731 68.1802 184.563 68.1421 184.4 68.17C184.237 68.1978 184.092 68.2893 183.996 68.4244C183.9 68.5594 183.862 68.7269 183.89 68.89L191 110.06C191.469 110.207 191.916 110.415 192.33 110.68Z" fill="white"/>
<path d="M200.25 59L204 73.32L202.37 72.51L201.23 68L197 65.93L195.7 69.21L194.13 68.43L198.38 58.07L200.25 59ZM197.38 64.86L200.93 66.62L199.85 62.5C199.6 61.56 199.44 60.74 199.27 59.94C199.08 60.59 198.87 61.24 198.64 61.88L197.42 64.88" fill="white"/>
<path d="M210.93 70.05C211.622 70.5438 212.195 71.1863 212.607 71.9303C213.019 72.6744 213.259 73.5011 213.31 74.35C213.357 74.7503 213.282 75.1555 213.094 75.5124C212.907 75.8693 212.616 76.1613 212.26 76.35C211.42 76.73 210.09 76.44 208.16 75.49C207.35 75.0922 206.563 74.6515 205.8 74.17L206 62C206.96 62.2927 207.894 62.6674 208.79 63.12C210.057 63.6731 211.167 64.5321 212.02 65.62C212.648 66.3724 212.994 67.32 213 68.3C213.014 68.5605 212.967 68.8208 212.862 69.0597C212.757 69.2985 212.598 69.5093 212.396 69.6749C212.194 69.8405 211.957 69.9562 211.702 70.0127C211.447 70.0692 211.183 70.0648 210.93 70V70.05ZM208.62 74.43C210.19 75.21 211.62 75.33 211.69 73.53C211.76 71.73 210.35 70.47 208.69 69.64L207.43 69L207.34 73.71C207.752 73.972 208.18 74.2091 208.62 74.42M207.53 63.83L207.45 67.83L208.84 68.52C210.45 69.32 211.41 68.9 211.44 67.71C211.44 66.26 210.44 65.17 208.89 64.41C208.46 64.1817 208.007 63.9974 207.54 63.86" fill="white"/>
<path d="M221 69.05C222.033 69.5345 222.979 70.1867 223.8 70.98L223.41 72.1C222.704 71.4093 221.89 70.8385 221 70.41C218.23 69.04 216.36 69.98 216.29 73.22C216.256 74.7219 216.657 76.2017 217.445 77.4809C218.233 78.7601 219.374 79.7843 220.73 80.43C221.504 80.8421 222.356 81.0874 223.23 81.15L223.52 82.56C222.416 82.4589 221.348 82.1176 220.39 81.56C218.672 80.7347 217.223 79.4385 216.212 77.8223C215.201 76.2061 214.67 74.3362 214.68 72.43C214.78 68.62 217.34 67.24 221 69.05Z" fill="white"/>
<defs>
<linearGradient id="paint0_linear_1_2" x1="247.66" y1="237.76" x2="203.02" y2="274.11" gradientUnits="userSpaceOnUse">
<stop stop-color="#D4A397"/>
<stop offset="1" stop-color="white"/>
</linearGradient>
<linearGradient id="paint1_linear_1_2" x1="123.78" y1="139.62" x2="82.82" y2="172.96" gradientUnits="userSpaceOnUse">
<stop stop-color="#D4A397"/>
<stop offset="1" stop-color="white"/>
</linearGradient>
</defs>
</svg>
